{"glyphs":{"0":{"ha":1330,"x_min":58,"x_max":1271,"o":"m 58 465 q 209 828 58 711 q 665 945 359 945 q 1121 828 970 945 q 1271 465 1271 711 q 1121 102 1271 219 q 665 -16 970 -16 q 209 101 359 -16 q 58 465 58 218 m 376 465 q 386 373 376 410 q 415 313 396 336 q 471 277 434 289 q 552 260 508 264 q 665 256 595 256 q 779 260 735 256 q 859 277 823 264 q 915 313 896 289 q 943 373 933 336 q 953 465 953 410 q 947 545 953 512 q 926 601 941 578 q 891 638 911 625 q 836 660 871 652 q 762 671 800 668 q 665 673 724 673 q 568 671 607 673 q 495 660 530 668 q 439 638 460 652 q 404 601 419 625 q 382 545 388 578 q 376 465 376 512 z "},"1":{"ha":654,"x_min":8,"x_max":566,"o":"m 8 659 l 191 929 l 566 929 l 566 0 l 243 0 l 243 659 l 8 659 z "},"2":{"ha":1318,"x_min":68,"x_max":1260,"o":"m 68 0 l 68 310 q 158 503 68 437 q 422 568 249 568 l 872 568 q 927 578 911 568 q 943 614 943 589 q 927 649 943 639 q 872 659 911 659 l 103 659 l 309 929 l 847 929 q 1154 851 1055 929 q 1253 633 1253 774 q 1164 437 1253 509 q 903 364 1076 364 l 453 364 q 397 352 414 364 q 379 314 379 340 l 379 267 l 1260 267 l 1051 0 l 68 0 z "},"3":{"ha":1289,"x_min":12,"x_max":1231,"o":"m 12 0 l 216 267 l 846 267 q 895 277 881 267 q 909 310 909 288 q 893 345 909 334 q 836 355 877 355 l 278 355 l 443 576 l 840 576 q 889 585 873 576 q 905 621 905 593 q 847 659 905 659 l 60 659 l 267 929 l 835 929 q 1112 863 1011 929 q 1213 671 1213 797 q 1178 547 1213 594 q 1089 478 1143 499 q 1192 406 1152 460 q 1231 273 1231 352 q 1213 164 1231 211 q 1152 78 1194 117 q 1031 20 1109 40 q 844 0 954 0 l 12 0 z "},"4":{"ha":1359,"x_min":40,"x_max":1352,"o":"m 40 236 q 107 363 40 309 l 760 895 q 900 947 827 947 q 1033 901 989 947 q 1076 750 1076 854 l 1076 353 l 1352 353 l 1164 97 l 1076 97 l 1076 0 l 770 0 l 770 97 l 195 97 q 77 137 115 97 q 40 236 40 176 m 513 346 q 636 353 543 353 l 770 353 l 770 446 q 775 557 770 504 q 652 448 760 533 q 513 346 544 363 z "},"5":{"ha":1272,"x_min":58,"x_max":1214,"o":"m 58 0 l 265 267 l 833 267 q 887 278 870 267 q 904 314 904 289 q 889 352 904 340 q 835 364 875 364 l 110 364 l 110 929 l 1179 929 l 971 659 l 429 659 l 429 568 l 865 568 q 1124 503 1035 568 q 1214 311 1214 438 q 808 0 1214 0 l 58 0 z "},"6":{"ha":1369,"x_min":58,"x_max":1311,"o":"m 58 473 q 132 711 58 607 q 335 872 206 816 q 627 929 465 929 l 1238 929 l 1029 659 l 576 659 q 463 637 506 659 q 393 568 420 615 l 957 568 q 1220 497 1130 568 q 1311 307 1311 425 q 721 -16 1311 -16 q 224 103 389 -16 q 58 473 58 222 m 393 363 q 418 321 403 339 q 456 292 433 304 q 506 273 480 280 q 571 262 532 266 q 648 257 610 258 q 741 256 686 256 q 858 259 809 256 q 936 267 907 262 q 982 280 965 272 q 1003 297 998 289 q 1008 317 1008 305 q 991 352 1008 341 q 933 363 973 363 l 393 363 z "},"7":{"ha":1196,"x_min":17,"x_max":1182,"o":"m 17 659 l 221 929 l 1007 929 q 1137 890 1091 929 q 1182 791 1182 851 q 1137 679 1182 732 l 550 0 l 143 0 l 602 507 q 708 621 675 589 q 761 667 741 653 q 518 659 686 659 l 17 659 z "},"8":{"ha":1350,"x_min":58,"x_max":1291,"o":"m 58 273 q 97 405 58 352 q 200 478 136 458 q 112 547 146 499 q 78 671 78 594 q 178 863 78 797 q 453 929 279 929 l 895 929 q 1172 863 1071 929 q 1272 671 1272 797 q 1238 547 1272 595 q 1150 478 1203 499 q 1252 405 1214 458 q 1291 273 1291 352 q 1280 184 1291 224 q 1242 110 1269 145 q 1172 51 1215 75 q 1061 14 1128 27 q 904 0 994 0 l 446 0 q 289 14 356 0 q 178 51 221 27 q 107 110 134 75 q 69 184 80 145 q 58 273 58 224 m 379 310 q 395 277 379 287 q 444 267 410 267 l 905 267 q 955 277 939 267 q 970 310 970 287 q 954 345 970 334 q 896 355 937 355 l 453 355 q 396 345 412 355 q 379 310 379 334 m 382 621 q 400 585 382 594 q 450 576 418 576 l 900 576 q 950 585 932 576 q 968 621 968 594 q 909 659 968 659 l 440 659 q 382 621 382 659 z "},"9":{"ha":1369,"x_min":58,"x_max":1311,"o":"m 58 624 q 648 945 58 945 q 1311 489 1311 945 q 1267 284 1311 376 q 1147 130 1223 191 q 967 34 1071 68 q 742 0 863 0 l 146 0 l 354 267 l 757 267 q 893 299 829 267 q 978 380 958 331 q 393 364 895 364 q 148 433 238 364 q 58 624 58 502 m 361 612 q 376 578 361 589 q 428 568 391 568 q 977 576 864 568 q 882 658 956 643 q 629 673 808 673 q 511 670 560 673 q 433 662 461 667 q 388 649 404 657 q 366 632 371 640 q 361 612 361 624 z "},"¤":{"ha":507,"x_min":46,"x_max":415,"o":"m 46 0 l 46 926 l 415 926 l 415 0 l 46 0 m 92 46 l 369 46 l 369 880 l 92 880 l 92 46 z "},"\u0017":{"ha":538,"x_min":0,"x_max":0,"o":""}," ":{"ha":538,"x_min":0,"x_max":0,"o":""},"!":{"ha":486,"x_min":74,"x_max":419,"o":"m 74 132 q 123 242 74 201 q 248 282 172 282 q 370 242 321 282 q 419 132 419 201 q 371 23 419 62 q 248 -17 322 -17 q 123 23 172 -17 q 74 132 74 62 m 83 639 l 83 929 l 404 929 l 404 639 l 368 367 l 117 367 l 83 639 z "},"\"":{"ha":668,"x_min":24,"x_max":644,"o":"m 24 929 l 309 929 l 215 557 l 117 557 l 24 929 m 358 929 l 644 929 l 551 557 l 453 557 l 358 929 z "},"#":{"ha":937,"x_min":40,"x_max":913,"o":"m 40 208 l 110 429 l 239 429 l 267 526 l 139 526 l 208 747 l 336 747 l 392 929 l 568 929 l 511 747 l 599 747 l 652 929 l 827 929 l 772 747 l 913 747 l 843 526 l 704 526 l 675 429 l 815 429 l 746 208 l 607 208 l 546 0 l 368 0 l 432 208 l 346 208 l 283 0 l 109 0 l 171 208 l 40 208 m 415 429 l 501 429 l 528 526 l 443 526 l 415 429 z "},"$":{"ha":954,"x_min":49,"x_max":897,"o":"m 49 150 l 196 338 l 419 338 l 419 404 l 317 404 q 132 457 194 404 q 71 599 71 509 q 140 751 71 696 q 357 806 209 806 l 419 806 l 419 929 l 546 929 l 546 806 l 879 806 l 733 615 l 546 615 l 546 551 l 652 551 q 834 505 772 551 q 897 370 897 459 q 829 207 897 263 q 611 150 761 150 l 546 150 l 546 0 l 419 0 l 419 150 l 49 150 m 339 615 q 288 583 288 615 q 339 551 288 551 l 419 551 l 419 615 l 339 615 m 546 338 l 633 338 q 679 371 679 338 q 668 396 679 389 q 633 404 657 404 l 546 404 l 546 338 z "},"%":{"ha":1381,"x_min":58,"x_max":1322,"o":"m 58 722 q 134 903 58 845 q 363 961 209 961 q 589 903 515 961 q 664 722 664 845 q 589 541 664 599 q 363 482 515 482 q 134 540 209 482 q 58 722 58 598 m 248 808 q 233 798 248 808 q 218 722 218 789 q 248 636 218 656 q 363 616 277 616 q 476 636 447 616 q 505 722 505 656 q 498 777 505 757 q 473 809 492 798 q 431 823 455 820 q 363 827 406 827 q 248 808 277 827 m 241 -53 l 987 981 l 1117 981 l 382 -53 l 241 -53 m 717 220 q 792 400 717 342 q 1021 458 867 458 q 1247 400 1173 458 q 1322 220 1322 342 q 1247 37 1322 96 q 1021 -21 1173 -21 q 792 37 867 -21 q 717 220 717 96 m 876 220 q 906 134 876 153 q 1021 114 935 114 q 1134 134 1105 114 q 1164 220 1164 153 q 1135 304 1164 286 q 1021 323 1105 323 q 951 320 976 323 q 908 306 926 317 q 883 275 889 295 q 876 220 876 254 z "},"&":{"ha":1240,"x_min":58,"x_max":1229,"o":"m 58 273 q 97 405 58 352 q 200 478 136 458 q 112 547 146 499 q 78 671 78 594 q 178 863 78 797 q 453 929 279 929 l 851 929 l 644 659 l 440 659 q 382 621 382 659 q 400 585 382 594 q 450 576 418 576 l 1213 576 l 1044 354 l 905 354 l 905 267 l 1229 267 l 1025 0 l 446 0 q 289 14 356 0 q 178 51 221 27 q 107 110 134 75 q 69 184 80 145 q 58 273 58 224 m 379 310 q 437 267 379 267 l 646 267 l 646 354 l 453 354 q 396 344 412 354 q 379 310 379 334 z "},"'":{"ha":332,"x_min":24,"x_max":309,"o":"m 24 929 l 309 929 l 215 557 l 117 557 l 24 929 z "},"(":{"ha":505,"x_min":122,"x_max":449,"o":"m 122 464 q 158 771 122 617 q 271 1101 195 925 l 447 1101 q 281 463 281 726 q 449 -179 281 177 l 273 -179 q 122 464 122 158 z "},")":{"ha":505,"x_min":58,"x_max":383,"o":"m 58 -179 q 227 463 227 190 q 185 752 227 597 q 60 1101 144 907 l 235 1101 q 347 771 311 925 q 383 464 383 617 q 233 -179 383 159 l 58 -179 z "},"*":{"ha":650,"x_min":58,"x_max":591,"o":"m 58 688 l 102 811 l 258 758 l 258 929 l 392 929 l 392 758 l 551 812 l 591 688 l 433 633 l 530 500 l 425 424 l 325 555 l 227 422 l 121 501 l 218 633 l 58 688 z "},"+":{"ha":875,"x_min":58,"x_max":817,"o":"m 58 385 l 58 557 l 351 557 l 351 850 l 524 850 l 524 557 l 817 557 l 817 385 l 524 385 l 524 92 l 351 92 l 351 385 l 58 385 z "},",":{"ha":433,"x_min":61,"x_max":390,"o":"m 61 239 l 390 239 l 245 -134 l 68 -134 l 61 239 z "},"-":{"ha":668,"x_min":21,"x_max":650,"o":"m 21 370 l 179 571 l 650 571 l 492 370 l 21 370 z "},".":{"ha":464,"x_min":58,"x_max":404,"o":"m 58 132 q 107 242 58 201 q 232 282 157 282 q 355 241 306 282 q 404 132 404 201 q 355 23 404 63 q 232 -17 307 -17 q 107 23 157 -17 q 58 132 58 62 z "},"/":{"ha":675,"x_min":0,"x_max":675,"o":"m 0 -53 l 486 981 l 675 981 l 200 -53 l 0 -53 z "},":":{"ha":548,"x_min":96,"x_max":443,"o":"m 96 132 q 145 241 96 201 q 269 282 195 282 q 393 241 343 282 q 443 132 443 201 q 393 23 443 63 q 269 -17 344 -17 q 145 23 195 -17 q 96 132 96 63 m 145 461 q 120 481 145 461 q 96 570 96 501 q 145 680 96 638 q 269 721 195 721 q 393 680 343 721 q 443 570 443 638 q 393 461 443 501 q 269 421 344 421 q 145 461 195 421 z "},";":{"ha":456,"x_min":60,"x_max":406,"o":"m 60 570 q 109 680 60 639 q 233 721 159 721 q 356 680 307 721 q 406 570 406 639 q 356 461 406 501 q 233 421 307 421 q 109 461 158 421 q 60 570 60 501 m 77 -134 l 77 239 l 406 239 l 260 -134 l 77 -134 z "},"<":{"ha":852,"x_min":58,"x_max":794,"o":"m 58 468 q 113 551 58 524 l 794 868 l 794 677 l 336 468 l 794 258 l 794 69 l 113 386 q 72 421 86 399 q 58 468 58 444 z "},"=":{"ha":875,"x_min":58,"x_max":817,"o":"m 58 203 l 58 375 l 817 375 l 817 203 l 58 203 m 58 570 l 58 742 l 817 742 l 817 570 l 58 570 z "},">":{"ha":852,"x_min":58,"x_max":794,"o":"m 58 69 l 58 258 l 517 468 l 58 677 l 58 868 l 739 551 q 794 468 794 522 q 739 386 794 413 l 58 69 z "},"?":{"ha":1050,"x_min":17,"x_max":1015,"o":"m 17 659 l 225 929 l 604 929 q 762 916 692 929 q 879 878 832 902 q 957 820 926 854 q 1002 748 988 787 q 1015 665 1015 710 q 928 453 1015 521 q 656 385 840 385 l 521 385 q 506 380 510 385 q 503 367 503 376 l 503 350 l 235 350 l 235 408 q 282 523 235 481 q 421 566 330 566 l 628 566 q 685 576 668 566 q 703 610 703 586 q 686 649 703 639 q 631 659 670 659 l 17 659 m 208 132 q 257 241 208 201 q 380 282 307 282 q 505 242 456 282 q 554 132 554 201 q 505 23 554 62 q 380 -17 456 -17 q 257 23 306 -17 q 208 132 208 63 z "},"@":{"ha":1291,"x_min":58,"x_max":1204,"o":"m 58 454 q 102 643 58 555 q 222 794 146 731 q 404 893 298 857 q 629 929 509 929 l 1204 929 l 1204 250 l 606 250 q 443 311 506 250 q 380 463 380 372 q 442 613 380 553 q 606 673 504 673 l 909 673 l 909 396 l 997 396 l 997 758 l 629 758 q 360 681 454 758 q 265 469 265 603 q 361 253 265 336 q 629 171 456 171 l 1043 171 l 1178 0 l 629 0 q 400 33 506 0 q 219 124 295 66 q 101 268 144 183 q 58 454 58 353 m 564 468 q 589 415 564 435 q 654 396 614 396 l 730 396 l 730 542 l 654 542 q 588 523 612 542 q 564 468 564 505 z "},"A":{"ha":1613,"x_min":16,"x_max":1600,"o":"m 16 0 l 610 828 q 817 946 694 946 q 1022 828 940 946 l 1600 0 l 501 0 l 696 267 l 904 267 q 1031 264 1002 267 q 966 351 1006 292 l 811 578 l 396 0 l 16 0 z "},"B":{"ha":1365,"x_min":87,"x_max":1308,"o":"m 87 659 l 306 929 l 913 929 q 1188 863 1088 929 q 1289 671 1289 797 q 1255 547 1289 594 q 1165 478 1220 499 q 1269 405 1230 458 q 1308 273 1308 352 q 1297 184 1308 224 q 1259 110 1286 145 q 1188 51 1232 75 q 1077 14 1145 27 q 920 0 1009 0 l 89 0 l 89 576 l 921 576 q 983 621 983 576 q 925 659 983 659 l 87 659 m 411 267 l 921 267 q 972 277 956 267 q 987 313 987 288 q 970 345 987 335 q 916 355 954 355 l 411 355 l 411 267 z "},"C":{"ha":1305,"x_min":58,"x_max":1292,"o":"m 58 473 q 132 711 58 607 q 334 872 205 816 q 625 929 463 929 l 1292 929 l 1086 659 l 625 659 q 444 615 507 659 q 380 473 380 572 q 446 319 380 372 q 625 267 511 267 l 1292 267 l 1086 0 l 625 0 q 399 36 505 0 q 219 135 294 73 q 101 286 144 198 q 58 473 58 374 z "},"D":{"ha":1350,"x_min":89,"x_max":1292,"o":"m 89 0 l 89 579 l 411 579 l 411 267 l 722 267 q 972 473 972 267 q 903 611 972 564 q 722 659 833 659 l 89 659 l 293 929 l 722 929 q 1016 871 886 929 q 1219 710 1145 814 q 1292 473 1292 606 q 1249 286 1292 374 q 1130 135 1205 198 q 949 36 1055 73 q 722 0 843 0 l 89 0 z "},"E":{"ha":1200,"x_min":89,"x_max":1189,"o":"m 89 0 l 89 929 l 1187 929 l 979 659 l 411 659 l 411 581 l 1131 581 l 951 354 l 411 354 l 411 267 l 1189 267 l 983 0 l 89 0 z "},"F":{"ha":1160,"x_min":89,"x_max":1150,"o":"m 89 0 l 89 929 l 1150 929 l 943 659 l 411 659 l 411 579 l 1097 579 l 901 328 l 411 328 l 411 0 l 89 0 z "},"G":{"ha":1356,"x_min":58,"x_max":1307,"o":"m 58 473 q 132 711 58 607 q 334 872 205 816 q 625 929 463 929 l 1307 929 l 1099 659 l 625 659 q 450 602 521 659 q 379 460 379 545 q 448 319 379 372 q 625 267 516 267 l 962 267 l 962 361 l 496 361 l 689 593 l 1282 593 l 1282 0 l 625 0 q 399 36 505 0 q 219 135 294 73 q 101 286 144 198 q 58 473 58 374 z "},"H":{"ha":1335,"x_min":89,"x_max":1244,"o":"m 89 0 l 89 929 l 411 929 l 411 612 l 924 612 l 924 929 l 1244 929 l 1244 0 l 924 0 l 924 345 l 411 345 l 411 0 l 89 0 z "},"I":{"ha":507,"x_min":93,"x_max":414,"o":"m 93 0 l 93 929 l 414 929 l 414 0 l 93 0 z "},"J":{"ha":1042,"x_min":16,"x_max":966,"o":"m 16 0 l 225 267 l 379 267 q 583 295 522 267 q 644 397 644 324 l 644 929 l 966 929 l 966 422 q 379 0 966 0 l 16 0 z "},"K":{"ha":1291,"x_min":89,"x_max":1284,"o":"m 89 0 l 89 929 l 411 929 l 411 728 q 404 557 411 682 q 553 707 460 618 l 790 929 l 1254 929 l 903 650 q 694 492 748 527 q 903 323 764 442 l 1284 0 l 800 0 l 551 239 l 551 239 l 550 240 l 549 241 l 549 241 l 548 242 l 547 243 l 547 243 l 546 244 l 545 245 l 545 245 l 544 246 l 543 247 l 543 248 l 542 248 l 541 249 l 541 250 l 540 250 l 539 251 l 538 252 l 537 252 q 410 381 428 358 q 406 387 408 385 q 408 332 406 379 q 411 258 411 285 l 411 0 l 89 0 z "},"L":{"ha":1123,"x_min":89,"x_max":1116,"o":"m 89 0 l 89 929 l 410 929 l 410 267 l 1116 267 l 908 0 l 89 0 z "},"M":{"ha":1772,"x_min":21,"x_max":1754,"o":"m 21 0 l 245 802 q 314 909 266 872 q 427 946 363 946 q 602 836 538 946 l 754 581 q 892 342 867 393 q 1028 579 911 382 l 1181 836 q 1357 946 1245 946 q 1467 909 1419 946 q 1536 802 1516 872 q 1645 401 1573 669 q 1754 0 1718 133 l 1434 0 l 1337 367 q 1311 532 1311 473 q 1179 290 1263 433 l 1068 100 q 989 5 1028 28 q 886 -17 950 -17 q 781 5 820 -17 q 700 100 741 27 l 576 322 q 463 532 493 470 q 429 374 451 454 l 336 0 l 21 0 z "},"N":{"ha":1289,"x_min":85,"x_max":1206,"o":"m 85 0 l 85 750 q 134 897 85 848 q 260 946 184 946 q 387 892 325 946 l 914 429 l 914 929 l 1206 929 l 1206 178 q 1156 31 1206 79 q 1029 -18 1105 -18 q 901 37 965 -18 l 376 498 l 376 0 l 85 0 z "},"O":{"ha":1503,"x_min":58,"x_max":1446,"o":"m 58 465 q 230 828 58 711 q 751 945 402 945 q 1273 828 1101 945 q 1446 465 1446 711 q 1273 102 1446 219 q 751 -16 1101 -16 q 230 101 402 -16 q 58 465 58 218 m 379 465 q 387 386 379 419 q 414 330 395 353 q 460 292 434 306 q 532 269 487 277 q 627 258 576 261 q 751 256 677 256 q 877 258 827 256 q 972 269 927 261 q 1044 292 1017 277 q 1090 330 1070 306 q 1117 386 1109 353 q 1125 465 1125 419 q 1121 527 1125 500 q 1106 575 1116 554 q 1081 612 1095 597 q 1043 638 1067 627 q 992 656 1019 650 q 927 667 966 663 q 848 672 888 671 q 751 673 808 673 q 627 671 676 673 q 532 660 577 668 q 460 638 486 652 q 414 601 434 625 q 387 545 395 578 q 379 465 379 512 z "},"P":{"ha":1397,"x_min":85,"x_max":1337,"o":"m 85 0 l 85 486 l 920 486 q 991 511 967 486 q 1015 575 1015 536 q 990 634 1015 610 q 920 659 965 659 l 86 659 l 298 929 l 872 929 q 1214 831 1090 929 q 1337 574 1337 733 q 1214 318 1337 414 q 871 222 1090 222 l 404 222 l 404 0 l 85 0 z "},"Q":{"ha":1499,"x_min":58,"x_max":1446,"o":"m 58 465 q 230 828 58 711 q 751 945 402 945 q 1273 828 1101 945 q 1446 465 1446 711 q 1431 379 1446 424 q 1397 310 1416 334 l 1060 310 q 1125 465 1125 353 q 1121 527 1125 500 q 1106 575 1116 554 q 1081 612 1095 597 q 1043 638 1067 627 q 992 656 1019 650 q 927 667 966 663 q 848 672 888 671 q 751 673 808 673 q 627 671 676 673 q 532 660 577 668 q 460 638 486 652 q 414 601 434 625 q 387 545 395 578 q 379 465 379 512 q 439 310 379 353 q 624 267 499 267 l 648 267 q 718 262 694 267 q 571 358 660 290 l 521 399 l 940 399 l 1435 0 l 631 0 q 405 30 509 0 q 224 118 302 60 q 102 264 146 175 q 58 465 58 353 z "},"R":{"ha":1447,"x_min":85,"x_max":1430,"o":"m 85 0 l 85 486 l 925 486 q 1043 574 1043 486 q 925 659 1043 659 l 86 659 l 296 929 l 885 929 q 978 925 932 929 q 1074 910 1024 921 q 1167 883 1124 899 q 1249 840 1210 867 q 1316 779 1289 813 q 1360 696 1344 745 q 1377 591 1377 648 q 1316 402 1377 484 q 1150 296 1256 321 q 1364 77 1212 254 l 1430 0 l 1002 0 l 825 231 l 406 231 l 406 0 l 85 0 z "},"S":{"ha":1359,"x_min":33,"x_max":1317,"o":"m 33 0 l 240 267 l 942 267 q 1007 315 1007 267 q 939 364 1007 364 l 414 364 q 152 437 240 364 q 64 633 64 511 q 161 854 64 779 q 471 929 259 929 l 1291 929 l 1083 659 l 440 659 q 391 648 407 659 q 375 614 375 638 q 391 579 375 589 q 440 568 407 568 l 968 568 q 1227 503 1137 568 q 1317 311 1317 437 q 1305 205 1317 252 q 1266 119 1293 158 q 1195 54 1238 80 q 1087 14 1152 28 q 937 0 1022 0 l 33 0 z "},"T":{"ha":1258,"x_min":0,"x_max":1258,"o":"m 0 659 l 208 929 l 1258 929 l 1050 659 l 745 659 l 745 0 l 422 0 l 422 659 l 0 659 z "},"U":{"ha":1393,"x_min":77,"x_max":1317,"o":"m 77 406 l 77 929 l 397 929 l 397 406 q 404 342 397 366 q 430 299 411 319 q 486 271 448 280 q 581 256 524 261 q 726 252 637 252 q 933 287 873 252 q 993 406 993 321 l 993 929 l 1317 929 l 1317 406 q 726 -16 1317 -16 q 233 89 389 -16 q 77 406 77 193 z "},"V":{"ha":1613,"x_min":16,"x_max":1600,"o":"m 16 929 l 410 929 l 804 351 l 1219 929 l 1600 929 l 1006 100 q 799 -17 924 -17 q 595 100 675 -17 l 16 929 z "},"W":{"ha":1773,"x_min":18,"x_max":1753,"o":"m 18 929 l 339 929 l 435 562 q 463 397 460 470 q 595 639 507 489 l 704 829 q 785 924 745 901 q 888 946 824 946 q 993 924 954 946 q 1072 829 1032 902 l 1197 607 q 1311 397 1273 471 q 1343 555 1316 441 l 1436 929 l 1753 929 l 1528 127 q 1459 20 1508 57 q 1348 -17 1411 -17 q 1171 93 1237 -17 l 1018 349 q 882 587 905 540 q 746 350 859 541 l 593 93 q 416 -17 526 -17 q 305 20 353 -17 q 236 127 256 57 q 127 529 199 261 q 18 929 56 796 z "},"X":{"ha":1470,"x_min":24,"x_max":1454,"o":"m 24 0 l 317 277 q 533 467 475 426 q 336 643 439 543 l 37 929 l 484 929 l 750 659 l 1019 929 l 1435 929 l 1124 639 q 942 479 1002 526 q 1171 273 1000 441 l 1454 0 l 1002 0 l 718 286 l 424 0 l 24 0 z "},"Y":{"ha":1451,"x_min":11,"x_max":1440,"o":"m 11 929 l 424 929 l 633 675 q 737 536 715 577 q 838 675 763 582 l 1038 929 l 1440 929 l 896 298 l 896 0 l 574 0 l 574 300 l 11 929 z "},"Z":{"ha":1262,"x_min":16,"x_max":1251,"o":"m 16 659 l 220 929 l 1053 929 q 1160 894 1116 929 q 1203 799 1203 859 q 1184 731 1203 765 q 1132 672 1164 697 l 817 425 q 591 260 652 296 q 920 267 620 267 l 1251 267 l 1057 0 l 203 0 q 96 35 140 0 q 53 131 53 71 q 123 257 53 205 l 444 505 q 663 665 628 648 q 350 659 607 659 l 16 659 z "},"[":{"ha":454,"x_min":111,"x_max":389,"o":"m 111 -179 l 111 1101 l 389 1101 l 389 914 l 298 914 l 298 5 l 389 5 l 389 -179 l 111 -179 z "},"\\":{"ha":675,"x_min":0,"x_max":675,"o":"m 0 981 l 187 981 l 675 -53 l 475 -53 l 0 981 z "},"]":{"ha":456,"x_min":66,"x_max":343,"o":"m 66 5 l 158 5 l 158 914 l 66 914 l 66 1101 l 343 1101 l 343 -179 l 66 -179 l 66 5 z "},"^":{"ha":806,"x_min":62,"x_max":743,"o":"m 62 411 l 277 929 l 529 929 l 743 411 l 533 411 l 406 751 l 279 411 l 62 411 z "},"_":{"ha":936,"x_min":0,"x_max":943,"o":"m 0 -52 l 943 -52 l 943 -191 l 0 -191 l 0 -52 z "},"`":{"ha":551,"x_min":66,"x_max":484,"o":"m 66 1029 l 66 1204 l 484 1121 l 484 993 l 66 1029 z "},"a":{"ha":1613,"x_min":16,"x_max":1600,"o":"m 16 0 l 610 828 q 817 946 694 946 q 1022 828 940 946 l 1600 0 l 501 0 l 696 267 l 904 267 q 1031 264 1002 267 q 966 351 1006 292 l 811 578 l 396 0 l 16 0 z "},"b":{"ha":1365,"x_min":87,"x_max":1308,"o":"m 87 659 l 306 929 l 913 929 q 1188 863 1088 929 q 1289 671 1289 797 q 1255 547 1289 594 q 1165 478 1220 499 q 1269 405 1230 458 q 1308 273 1308 352 q 1297 184 1308 224 q 1259 110 1286 145 q 1188 51 1232 75 q 1077 14 1145 27 q 920 0 1009 0 l 89 0 l 89 576 l 921 576 q 983 621 983 576 q 925 659 983 659 l 87 659 m 411 267 l 921 267 q 972 277 956 267 q 987 313 987 288 q 970 345 987 335 q 916 355 954 355 l 411 355 l 411 267 z "},"c":{"ha":1305,"x_min":58,"x_max":1292,"o":"m 58 473 q 132 711 58 607 q 334 872 205 816 q 625 929 463 929 l 1292 929 l 1086 659 l 625 659 q 444 615 507 659 q 380 473 380 572 q 446 319 380 372 q 625 267 511 267 l 1292 267 l 1086 0 l 625 0 q 399 36 505 0 q 219 135 294 73 q 101 286 144 198 q 58 473 58 374 z "},"d":{"ha":1350,"x_min":89,"x_max":1292,"o":"m 89 0 l 89 579 l 411 579 l 411 267 l 722 267 q 972 473 972 267 q 903 611 972 564 q 722 659 833 659 l 89 659 l 293 929 l 722 929 q 1016 871 886 929 q 1219 710 1145 814 q 1292 473 1292 606 q 1249 286 1292 374 q 1130 135 1205 198 q 949 36 1055 73 q 722 0 843 0 l 89 0 z "},"e":{"ha":1200,"x_min":89,"x_max":1189,"o":"m 89 0 l 89 929 l 1187 929 l 979 659 l 411 659 l 411 581 l 1131 581 l 951 354 l 411 354 l 411 267 l 1189 267 l 983 0 l 89 0 z "},"f":{"ha":1160,"x_min":89,"x_max":1150,"o":"m 89 0 l 89 929 l 1150 929 l 943 659 l 411 659 l 411 579 l 1097 579 l 901 328 l 411 328 l 411 0 l 89 0 z "},"g":{"ha":1356,"x_min":58,"x_max":1307,"o":"m 58 473 q 132 711 58 607 q 334 872 205 816 q 625 929 463 929 l 1307 929 l 1099 659 l 625 659 q 450 602 521 659 q 379 460 379 545 q 448 319 379 372 q 625 267 516 267 l 962 267 l 962 361 l 496 361 l 689 593 l 1282 593 l 1282 0 l 625 0 q 399 36 505 0 q 219 135 294 73 q 101 286 144 198 q 58 473 58 374 z "},"h":{"ha":1335,"x_min":89,"x_max":1244,"o":"m 89 0 l 89 929 l 411 929 l 411 612 l 924 612 l 924 929 l 1244 929 l 1244 0 l 924 0 l 924 345 l 411 345 l 411 0 l 89 0 z "},"i":{"ha":507,"x_min":93,"x_max":414,"o":"m 93 0 l 93 929 l 414 929 l 414 0 l 93 0 z "},"j":{"ha":1042,"x_min":16,"x_max":966,"o":"m 16 0 l 225 267 l 379 267 q 583 295 522 267 q 644 397 644 324 l 644 929 l 966 929 l 966 422 q 379 0 966 0 l 16 0 z "},"k":{"ha":1291,"x_min":89,"x_max":1284,"o":"m 89 0 l 89 929 l 411 929 l 411 728 q 404 557 411 682 q 553 707 460 618 l 790 929 l 1254 929 l 903 650 q 694 492 748 527 q 903 323 764 442 l 1284 0 l 800 0 l 551 239 l 551 239 l 550 240 l 549 241 l 549 241 l 548 242 l 547 243 l 547 243 l 546 244 l 545 245 l 545 245 l 544 246 l 543 247 l 543 248 l 542 248 l 541 249 l 541 250 l 540 250 l 539 251 l 538 252 l 537 252 q 410 381 428 358 q 406 387 408 385 q 408 332 406 379 q 411 258 411 285 l 411 0 l 89 0 z "},"l":{"ha":1123,"x_min":89,"x_max":1116,"o":"m 89 0 l 89 929 l 410 929 l 410 267 l 1116 267 l 908 0 l 89 0 z "},"m":{"ha":1772,"x_min":21,"x_max":1754,"o":"m 21 0 l 245 802 q 314 909 266 872 q 427 946 363 946 q 602 836 538 946 l 754 581 q 892 342 867 393 q 1028 579 911 382 l 1181 836 q 1357 946 1245 946 q 1467 909 1419 946 q 1536 802 1516 872 q 1645 401 1573 669 q 1754 0 1718 133 l 1434 0 l 1337 367 q 1311 532 1311 473 q 1179 290 1263 433 l 1068 100 q 989 5 1028 28 q 886 -17 950 -17 q 781 5 820 -17 q 700 100 741 27 l 576 322 q 463 532 493 470 q 429 374 451 454 l 336 0 l 21 0 z "},"n":{"ha":1289,"x_min":85,"x_max":1206,"o":"m 85 0 l 85 750 q 134 897 85 848 q 260 946 184 946 q 387 892 325 946 l 914 429 l 914 929 l 1206 929 l 1206 178 q 1156 31 1206 79 q 1029 -18 1105 -18 q 901 37 965 -18 l 376 498 l 376 0 l 85 0 z "},"o":{"ha":1503,"x_min":58,"x_max":1446,"o":"m 58 465 q 230 828 58 711 q 751 945 402 945 q 1273 828 1101 945 q 1446 465 1446 711 q 1273 102 1446 219 q 751 -16 1101 -16 q 230 101 402 -16 q 58 465 58 218 m 379 465 q 387 386 379 419 q 414 330 395 353 q 460 292 434 306 q 532 269 487 277 q 627 258 576 261 q 751 256 677 256 q 877 258 827 256 q 972 269 927 261 q 1044 292 1017 277 q 1090 330 1070 306 q 1117 386 1109 353 q 1125 465 1125 419 q 1121 527 1125 500 q 1106 575 1116 554 q 1081 612 1095 597 q 1043 638 1067 627 q 992 656 1019 650 q 927 667 966 663 q 848 672 888 671 q 751 673 808 673 q 627 671 676 673 q 532 660 577 668 q 460 638 486 652 q 414 601 434 625 q 387 545 395 578 q 379 465 379 512 z "},"p":{"ha":1397,"x_min":85,"x_max":1337,"o":"m 85 0 l 85 486 l 920 486 q 991 511 967 486 q 1015 575 1015 536 q 990 634 1015 610 q 920 659 965 659 l 86 659 l 298 929 l 872 929 q 1214 831 1090 929 q 1337 574 1337 733 q 1214 318 1337 414 q 871 222 1090 222 l 404 222 l 404 0 l 85 0 z "},"q":{"ha":1499,"x_min":58,"x_max":1446,"o":"m 58 465 q 230 828 58 711 q 751 945 402 945 q 1273 828 1101 945 q 1446 465 1446 711 q 1431 379 1446 424 q 1397 310 1416 334 l 1060 310 q 1125 465 1125 353 q 1121 527 1125 500 q 1106 575 1116 554 q 1081 612 1095 597 q 1043 638 1067 627 q 992 656 1019 650 q 927 667 966 663 q 848 672 888 671 q 751 673 808 673 q 627 671 676 673 q 532 660 577 668 q 460 638 486 652 q 414 601 434 625 q 387 545 395 578 q 379 465 379 512 q 439 310 379 353 q 624 267 499 267 l 648 267 q 718 262 694 267 q 571 358 660 290 l 521 399 l 940 399 l 1435 0 l 631 0 q 405 30 509 0 q 224 118 302 60 q 102 264 146 175 q 58 465 58 353 z "},"r":{"ha":1447,"x_min":85,"x_max":1430,"o":"m 85 0 l 85 486 l 925 486 q 1043 574 1043 486 q 925 659 1043 659 l 86 659 l 296 929 l 885 929 q 978 925 932 929 q 1074 910 1024 921 q 1167 883 1124 899 q 1249 840 1210 867 q 1316 779 1289 813 q 1360 696 1344 745 q 1377 591 1377 648 q 1316 402 1377 484 q 1150 296 1256 321 q 1364 77 1212 254 l 1430 0 l 1002 0 l 825 231 l 406 231 l 406 0 l 85 0 z "},"s":{"ha":1359,"x_min":33,"x_max":1317,"o":"m 33 0 l 240 267 l 942 267 q 1007 315 1007 267 q 939 364 1007 364 l 414 364 q 152 437 240 364 q 64 633 64 511 q 161 854 64 779 q 471 929 259 929 l 1291 929 l 1083 659 l 440 659 q 391 648 407 659 q 375 614 375 638 q 391 579 375 589 q 440 568 407 568 l 968 568 q 1227 503 1137 568 q 1317 311 1317 437 q 1305 205 1317 252 q 1266 119 1293 158 q 1195 54 1238 80 q 1087 14 1152 28 q 937 0 1022 0 l 33 0 z "},"t":{"ha":1258,"x_min":0,"x_max":1258,"o":"m 0 659 l 208 929 l 1258 929 l 1050 659 l 745 659 l 745 0 l 422 0 l 422 659 l 0 659 z "},"u":{"ha":1393,"x_min":77,"x_max":1317,"o":"m 77 406 l 77 929 l 397 929 l 397 406 q 404 342 397 366 q 430 299 411 319 q 486 271 448 280 q 581 256 524 261 q 726 252 637 252 q 933 287 873 252 q 993 406 993 321 l 993 929 l 1317 929 l 1317 406 q 726 -16 1317 -16 q 233 89 389 -16 q 77 406 77 193 z "},"v":{"ha":1613,"x_min":16,"x_max":1600,"o":"m 16 929 l 410 929 l 804 351 l 1219 929 l 1600 929 l 1006 100 q 799 -17 924 -17 q 595 100 675 -17 l 16 929 z "},"w":{"ha":1773,"x_min":18,"x_max":1753,"o":"m 18 929 l 339 929 l 435 562 q 463 397 460 470 q 595 639 507 489 l 704 829 q 785 924 745 901 q 888 946 824 946 q 993 924 954 946 q 1072 829 1032 902 l 1197 607 q 1311 397 1273 471 q 1343 555 1316 441 l 1436 929 l 1753 929 l 1528 127 q 1459 20 1508 57 q 1348 -17 1411 -17 q 1171 93 1237 -17 l 1018 349 q 882 587 905 540 q 746 350 859 541 l 593 93 q 416 -17 526 -17 q 305 20 353 -17 q 236 127 256 57 q 127 529 199 261 q 18 929 56 796 z "},"x":{"ha":1470,"x_min":24,"x_max":1454,"o":"m 24 0 l 317 277 q 533 467 475 426 q 336 643 439 543 l 37 929 l 484 929 l 750 659 l 1019 929 l 1435 929 l 1124 639 q 942 479 1002 526 q 1171 273 1000 441 l 1454 0 l 1002 0 l 718 286 l 424 0 l 24 0 z "},"y":{"ha":1451,"x_min":11,"x_max":1440,"o":"m 11 929 l 424 929 l 633 675 q 737 536 715 577 q 838 675 763 582 l 1038 929 l 1440 929 l 896 298 l 896 0 l 574 0 l 574 300 l 11 929 z "},"z":{"ha":1262,"x_min":16,"x_max":1251,"o":"m 16 659 l 220 929 l 1053 929 q 1160 894 1116 929 q 1203 799 1203 859 q 1184 731 1203 765 q 1132 672 1164 697 l 817 425 q 591 260 652 296 q 920 267 620 267 l 1251 267 l 1057 0 l 203 0 q 96 35 140 0 q 53 131 53 71 q 123 257 53 205 l 444 505 q 663 665 628 648 q 350 659 607 659 l 16 659 z "},"{":{"ha":508,"x_min":98,"x_max":441,"o":"m 98 383 l 98 539 q 182 579 182 541 l 182 929 q 342 1101 182 1101 l 441 1101 l 441 914 q 370 848 370 914 l 370 596 q 300 461 370 495 q 370 328 370 425 l 370 74 q 441 9 370 9 l 441 -179 l 342 -179 q 182 -7 182 -179 l 182 343 q 98 383 182 381 z "},"|":{"ha":436,"x_min":132,"x_max":304,"o":"m 132 -138 l 132 1048 l 304 1048 l 304 -138 l 132 -138 z "},"}":{"ha":508,"x_min":65,"x_max":408,"o":"m 65 9 q 138 74 138 9 l 138 328 q 208 461 138 426 q 138 596 138 494 l 138 848 q 65 914 138 914 l 65 1101 l 165 1101 q 326 929 326 1101 l 326 579 q 408 539 326 541 l 408 383 q 326 343 326 381 l 326 -7 q 165 -179 326 -179 l 65 -179 l 65 9 z "},"~":{"ha":789,"x_min":56,"x_max":724,"o":"m 56 282 l 56 534 q 245 627 144 627 q 322 611 280 627 q 397 576 363 595 q 474 541 431 557 q 553 525 517 525 q 724 637 643 525 l 724 383 q 530 294 637 294 q 454 311 496 294 q 378 346 412 327 q 303 381 345 365 q 227 397 261 397 q 56 282 141 397 z "}," ":{"ha":538,"x_min":0,"x_max":0,"o":""},"¡":{"ha":486,"x_min":74,"x_max":419,"o":"m 123 688 q 98 708 123 688 q 74 798 74 728 q 122 906 74 867 q 245 946 171 946 q 370 907 321 946 q 419 798 419 867 q 370 688 419 728 q 245 647 320 647 q 123 688 172 647 m 89 0 l 89 290 l 125 562 l 376 562 l 410 290 l 410 0 l 89 0 z "},"¢":{"ha":933,"x_min":71,"x_max":889,"o":"m 71 485 q 122 652 71 578 q 265 766 174 726 q 469 806 355 806 l 469 929 l 596 929 l 596 806 l 888 806 l 743 615 l 596 615 l 596 339 l 889 339 l 743 151 l 596 151 l 596 0 l 469 0 l 469 151 q 184 247 298 151 q 71 485 71 342 m 347 575 q 323 556 347 575 q 298 475 298 536 q 347 376 298 414 q 469 339 395 339 l 469 615 q 347 575 395 615 z "},"£":{"ha":1144,"x_min":0,"x_max":1135,"o":"m 0 370 l 157 571 l 282 571 l 282 640 q 382 853 282 777 q 688 929 482 929 l 1133 929 l 925 659 l 643 659 q 596 606 596 659 l 596 571 l 879 571 l 722 370 l 596 370 l 596 267 l 1135 267 l 925 0 l 41 0 l 249 267 l 282 267 l 282 370 l 0 370 z "},"¥":{"ha":1451,"x_min":11,"x_max":1440,"o":"m 11 929 l 424 929 l 633 675 q 737 536 715 577 q 838 675 763 582 l 1038 929 l 1440 929 l 1032 457 l 1255 457 l 1255 298 l 896 298 l 896 229 l 1255 229 l 1255 71 l 896 71 l 896 0 l 574 0 l 574 71 l 220 71 l 220 229 l 574 229 l 574 298 l 220 298 l 220 457 l 433 457 l 11 929 z "},"¦":{"ha":436,"x_min":132,"x_max":304,"o":"m 132 -138 l 132 395 l 304 395 l 304 -138 l 132 -138 m 132 558 l 132 1048 l 304 1048 l 304 558 l 132 558 z "},"¨":{"ha":616,"x_min":50,"x_max":564,"o":"m 50 1112 q 82 1181 50 1155 q 160 1207 113 1207 q 237 1181 207 1207 q 268 1112 268 1155 q 237 1043 268 1069 q 160 1018 207 1018 q 81 1043 113 1018 q 50 1112 50 1069 m 346 1112 q 377 1181 346 1155 q 454 1207 408 1207 q 533 1181 502 1207 q 564 1112 564 1155 q 533 1043 564 1069 q 454 1018 503 1018 q 377 1043 408 1018 q 346 1112 346 1069 z "},"©":{"ha":1082,"x_min":61,"x_max":1023,"o":"m 61 465 q 99 653 61 564 q 202 806 138 742 q 356 908 267 870 q 543 946 446 946 q 784 882 673 946 q 959 707 895 818 q 1023 465 1023 596 q 985 278 1023 368 q 883 125 947 189 q 730 22 819 60 q 543 -16 641 -16 q 356 22 446 -16 q 202 125 267 60 q 99 278 138 189 q 61 465 61 368 m 125 464 q 158 300 125 378 q 247 166 191 222 q 381 78 302 111 q 546 45 459 45 q 709 78 631 45 q 843 166 787 111 q 933 300 900 222 q 966 464 966 378 q 910 676 966 578 q 757 831 854 774 q 546 888 660 888 q 333 831 430 888 q 180 676 236 774 q 125 464 125 579 m 367 306 q 332 339 367 306 q 298 468 298 371 q 366 626 298 565 q 538 686 433 686 l 703 686 l 639 602 l 538 602 q 436 562 477 602 q 396 461 396 523 q 436 363 396 401 q 538 325 475 325 l 703 325 l 639 241 l 538 241 q 367 306 435 241 z "},"ª":{"ha":966,"x_min":49,"x_max":920,"o":"m 49 395 l 375 848 q 489 916 424 916 q 602 848 558 916 l 920 395 l 315 395 l 422 542 l 536 542 q 606 541 590 542 q 590 561 604 543 q 571 587 576 578 l 485 713 l 257 395 l 49 395 z "},"«":{"ha":642,"x_min":40,"x_max":583,"o":"m 40 376 l 40 517 l 282 688 l 282 541 l 135 452 l 282 358 l 282 215 l 40 376 m 343 376 l 343 517 l 583 688 l 583 541 l 436 452 l 583 358 l 583 215 l 343 376 z "},"­":{"ha":668,"x_min":21,"x_max":650,"o":"m 21 370 l 179 571 l 650 571 l 492 370 l 21 370 z "},"®":{"ha":700,"x_min":61,"x_max":643,"o":"m 61 672 q 83 776 61 726 q 142 863 104 826 q 234 923 179 901 q 350 945 288 945 q 559 865 475 945 q 643 672 643 786 q 605 538 643 600 q 498 438 566 475 q 350 400 431 400 q 143 480 226 400 q 61 672 61 561 m 118 672 q 182 520 118 587 q 347 453 246 453 q 519 517 446 453 q 591 672 591 581 q 560 773 591 724 q 472 854 529 822 q 347 886 415 886 q 226 854 279 886 q 145 773 172 821 q 118 672 118 725 m 240 721 l 286 779 l 368 779 q 473 704 473 779 q 459 663 473 681 q 421 640 445 645 l 484 575 l 389 575 l 350 625 l 313 625 l 313 574 l 241 574 l 241 681 l 368 681 q 400 700 400 681 q 368 721 400 721 l 240 721 z "},"¯":{"ha":551,"x_min":66,"x_max":484,"o":"m 66 1035 l 66 1164 l 484 1164 l 484 1035 l 66 1035 z "},"°":{"ha":559,"x_min":66,"x_max":503,"o":"m 66 728 q 283 945 66 945 q 503 728 503 945 q 283 513 503 513 q 66 728 66 513 m 191 728 q 283 637 191 637 q 378 725 378 637 q 283 819 378 819 q 191 728 191 819 z "},"±":{"ha":875,"x_min":58,"x_max":817,"o":"m 58 -14 l 817 -14 l 817 -186 l 58 -186 l 58 -14 m 58 385 l 58 557 l 351 557 l 351 850 l 524 850 l 524 557 l 817 557 l 817 385 l 524 385 l 524 92 l 351 92 l 351 385 l 58 385 z "},"²":{"ha":699,"x_min":54,"x_max":650,"o":"m 54 490 l 54 644 q 231 774 54 774 l 456 774 q 484 779 475 774 q 492 796 492 784 q 484 813 492 808 q 456 818 476 818 l 71 818 l 174 954 l 443 954 q 596 916 547 954 q 646 807 646 877 q 602 707 646 744 q 471 671 557 671 l 245 671 q 217 665 226 671 q 208 646 208 659 l 208 623 l 650 623 l 546 490 l 54 490 z "},"³":{"ha":683,"x_min":26,"x_max":635,"o":"m 26 490 l 127 623 l 441 623 q 475 644 475 623 q 466 662 475 656 q 437 667 458 667 l 158 667 l 240 778 l 439 778 q 464 782 455 778 q 472 800 472 787 q 443 818 472 818 l 49 818 l 153 954 l 436 954 q 575 921 524 954 q 625 825 625 888 q 608 762 625 787 q 564 729 590 738 q 615 693 595 720 q 635 627 635 666 q 591 526 635 562 q 441 490 548 490 l 26 490 z "},"´":{"ha":551,"x_min":66,"x_max":484,"o":"m 66 993 l 66 1121 l 484 1204 l 484 1029 l 66 993 z "},"·":{"ha":464,"x_min":58,"x_max":404,"o":"m 58 447 q 108 557 58 516 q 232 597 157 597 q 355 557 306 597 q 404 447 404 516 q 355 338 404 378 q 232 298 306 298 q 107 338 157 298 q 58 447 58 378 z "},"¸":{"ha":435,"x_min":86,"x_max":325,"o":"m 86 -43 l 325 -43 l 203 -354 l 86 -354 l 86 -43 z "},"¹":{"ha":366,"x_min":24,"x_max":302,"o":"m 24 818 l 114 954 l 302 954 l 302 490 l 140 490 l 140 818 l 24 818 z "},"º":{"ha":905,"x_min":71,"x_max":835,"o":"m 71 650 q 166 850 71 785 q 453 914 261 914 q 740 850 646 914 q 835 650 835 786 q 740 449 835 514 q 453 385 645 385 q 166 450 262 385 q 71 650 71 515 m 248 650 q 290 556 248 578 q 453 534 333 534 q 616 556 573 534 q 659 650 659 578 q 651 701 659 680 q 631 734 644 721 q 591 754 617 747 q 533 763 564 760 q 453 765 503 765 q 373 763 404 765 q 315 754 342 760 q 275 734 289 747 q 255 701 262 721 q 248 650 248 680 z "},"»":{"ha":642,"x_min":65,"x_max":607,"o":"m 65 215 l 65 358 l 214 452 l 65 541 l 65 688 l 307 517 l 307 376 l 65 215 m 367 215 l 367 358 l 514 452 l 367 541 l 367 688 l 607 517 l 607 376 l 367 215 z "},"¼":{"ha":1327,"x_min":58,"x_max":1270,"o":"m 58 818 l 149 954 l 338 954 l 338 490 l 175 490 l 175 818 l 58 818 m 90 -53 l 836 981 l 965 981 l 231 -53 l 90 -53 m 612 106 q 646 168 612 141 l 974 433 q 1043 460 1006 460 q 1131 361 1131 460 l 1131 163 l 1270 163 l 1174 36 l 1131 36 l 1131 -12 l 978 -12 l 978 36 l 690 36 q 631 56 650 36 q 612 106 612 75 m 850 160 q 911 163 871 163 l 978 163 l 978 208 q 981 265 978 253 q 920 211 973 253 q 850 160 866 169 z "},"½":{"ha":1311,"x_min":58,"x_max":1253,"o":"m 58 818 l 149 954 l 338 954 l 338 490 l 175 490 l 175 818 l 58 818 m 90 -53 l 836 981 l 965 981 l 231 -53 l 90 -53 m 657 -12 l 657 142 q 833 271 657 271 l 1059 271 q 1086 276 1078 271 q 1095 293 1095 281 q 1086 311 1095 306 q 1059 315 1078 315 l 673 315 l 777 452 l 1046 452 q 1199 413 1149 452 q 1249 304 1249 374 q 1204 205 1249 241 q 1074 168 1160 168 l 848 168 q 820 162 829 168 q 811 143 811 157 l 811 119 l 1253 119 l 1149 -12 l 657 -12 z "},"¾":{"ha":1522,"x_min":58,"x_max":1464,"o":"m 58 490 l 160 623 l 473 623 q 507 644 507 623 q 469 667 507 667 l 191 667 l 272 778 l 471 778 q 495 782 487 778 q 504 800 504 787 q 475 818 504 818 l 81 818 l 184 954 l 468 954 q 607 921 556 954 q 657 825 657 888 q 640 762 657 787 q 596 729 623 738 q 647 693 627 720 q 667 627 667 666 q 623 526 667 562 q 473 490 580 490 l 58 490 m 339 -53 l 1084 981 l 1214 981 l 479 -53 l 339 -53 m 807 106 q 840 168 807 141 l 1168 433 q 1238 460 1200 460 q 1325 361 1325 460 l 1325 163 l 1464 163 l 1368 36 l 1325 36 l 1325 -12 l 1173 -12 l 1173 36 l 885 36 q 826 56 845 36 q 807 106 807 75 m 1044 160 q 1105 163 1066 163 l 1173 163 l 1173 208 q 1175 265 1173 253 q 1114 211 1168 253 q 1044 160 1061 169 z "},"¿":{"ha":1050,"x_min":31,"x_max":1029,"o":"m 31 264 q 118 476 31 408 q 390 545 205 545 l 525 545 q 539 549 536 545 q 543 562 543 553 l 543 579 l 811 579 l 811 521 q 764 406 811 448 q 625 364 717 364 l 418 364 q 360 354 378 364 q 343 319 343 343 q 359 280 343 290 q 415 271 376 271 l 1029 271 l 821 0 l 441 0 q 284 14 354 0 q 167 51 214 27 q 89 109 120 75 q 44 181 58 142 q 31 264 31 219 m 492 798 q 541 907 492 867 q 665 946 590 946 q 789 906 740 946 q 838 798 838 867 q 788 688 838 728 q 665 647 739 647 q 541 688 591 647 q 492 798 492 728 z "},"À":{"ha":1613,"x_min":16,"x_max":1600,"o":"m 16 0 l 610 828 q 817 946 694 946 q 1022 828 940 946 l 1600 0 l 501 0 l 696 267 l 904 267 q 1031 264 1002 267 q 966 351 1006 292 l 811 578 l 396 0 l 16 0 m 558 1029 l 558 1204 l 975 1121 l 975 993 l 558 1029 z "},"Á":{"ha":1613,"x_min":16,"x_max":1600,"o":"m 16 0 l 610 828 q 817 946 694 946 q 1022 828 940 946 l 1600 0 l 501 0 l 696 267 l 904 267 q 1031 264 1002 267 q 966 351 1006 292 l 811 578 l 396 0 l 16 0 m 637 993 l 637 1121 l 1054 1204 l 1054 1029 l 637 993 z "},"Â":{"ha":1613,"x_min":16,"x_max":1600,"o":"m 16 0 l 610 828 q 817 946 694 946 q 1022 828 940 946 l 1600 0 l 501 0 l 696 267 l 904 267 q 1031 264 1002 267 q 966 351 1006 292 l 811 578 l 396 0 l 16 0 m 583 993 l 705 1204 l 907 1204 l 1029 993 l 876 993 l 812 1125 l 799 1125 l 736 993 l 583 993 z "},"Ã":{"ha":1613,"x_min":16,"x_max":1600,"o":"m 16 0 l 610 828 q 817 946 694 946 q 1022 828 940 946 l 1600 0 l 501 0 l 696 267 l 904 267 q 1031 264 1002 267 q 966 351 1006 292 l 811 578 l 396 0 l 16 0 m 597 1019 l 597 1145 q 704 1183 636 1183 q 805 1158 740 1183 q 907 1132 871 1132 q 966 1145 938 1132 q 1014 1177 995 1158 l 1014 1051 q 907 1014 979 1014 q 807 1040 873 1014 q 704 1065 741 1065 q 645 1052 674 1065 q 597 1019 616 1038 z "},"Ä":{"ha":1613,"x_min":16,"x_max":1600,"o":"m 16 0 l 610 828 q 817 946 694 946 q 1022 828 940 946 l 1600 0 l 501 0 l 696 267 l 904 267 q 1031 264 1002 267 q 966 351 1006 292 l 811 578 l 396 0 l 16 0 m 550 1112 q 582 1181 550 1155 q 660 1207 613 1207 q 738 1181 707 1207 q 768 1112 768 1155 q 738 1043 768 1069 q 660 1018 707 1018 q 581 1043 612 1018 q 550 1112 550 1069 m 846 1112 q 877 1181 846 1155 q 954 1207 908 1207 q 1033 1181 1002 1207 q 1064 1112 1064 1155 q 1033 1043 1064 1069 q 954 1018 1002 1018 q 877 1043 908 1018 q 846 1112 846 1069 z "},"Å":{"ha":1613,"x_min":16,"x_max":1600,"o":"m 16 0 l 610 828 q 817 946 694 946 q 1022 828 940 946 l 1600 0 l 501 0 l 696 267 l 904 267 q 1031 264 1002 267 q 966 351 1006 292 l 811 578 l 396 0 l 16 0 m 604 1108 l 604 1196 q 747 1312 604 1312 l 864 1312 q 1008 1196 1008 1312 l 1008 1108 q 864 993 1008 993 l 747 993 q 604 1108 604 993 m 721 1122 q 746 1099 721 1101 l 865 1099 q 889 1122 889 1099 l 890 1186 q 865 1206 890 1206 l 746 1206 q 721 1186 723 1206 l 721 1122 z "},"Æ":{"ha":2023,"x_min":16,"x_max":2014,"o":"m 16 0 l 590 812 q 798 929 671 929 l 2009 929 l 1803 659 l 1235 659 l 1235 589 l 1957 589 l 1773 354 l 1235 354 l 1235 267 l 2014 267 l 1805 0 l 913 0 l 913 659 l 860 659 l 396 0 l 16 0 z "},"Ç":{"ha":1305,"x_min":58,"x_max":1292,"o":"m 58 473 q 132 711 58 607 q 334 872 205 816 q 625 929 463 929 l 1292 929 l 1086 659 l 625 659 q 444 615 507 659 q 380 473 380 572 q 446 319 380 372 q 625 267 511 267 l 1292 267 l 1086 0 l 625 0 q 399 36 505 0 q 219 135 294 73 q 101 286 144 198 q 58 473 58 374 m 585 -43 l 823 -43 l 701 -354 l 585 -354 l 585 -43 z "},"È":{"ha":1200,"x_min":89,"x_max":1189,"o":"m 89 0 l 89 929 l 1187 929 l 979 659 l 411 659 l 411 581 l 1131 581 l 951 354 l 411 354 l 411 267 l 1189 267 l 983 0 l 89 0 m 380 1026 l 380 1202 l 798 1118 l 798 990 l 380 1026 z "},"É":{"ha":1200,"x_min":89,"x_max":1189,"o":"m 89 0 l 89 929 l 1187 929 l 979 659 l 411 659 l 411 581 l 1131 581 l 951 354 l 411 354 l 411 267 l 1189 267 l 983 0 l 89 0 m 444 993 l 444 1121 l 861 1204 l 861 1029 l 444 993 z "},"Ê":{"ha":1200,"x_min":89,"x_max":1189,"o":"m 89 0 l 89 929 l 1187 929 l 979 659 l 411 659 l 411 581 l 1131 581 l 951 354 l 411 354 l 411 267 l 1189 267 l 983 0 l 89 0 m 397 993 l 519 1204 l 721 1204 l 843 993 l 690 993 l 627 1125 l 612 1125 l 550 993 l 397 993 z "},"Ë":{"ha":1200,"x_min":89,"x_max":1189,"o":"m 89 0 l 89 929 l 1187 929 l 979 659 l 411 659 l 411 581 l 1131 581 l 951 354 l 411 354 l 411 267 l 1189 267 l 983 0 l 89 0 m 371 1112 q 402 1181 371 1155 q 481 1207 434 1207 q 558 1181 528 1207 q 589 1112 589 1155 q 558 1043 589 1069 q 481 1018 528 1018 q 402 1043 433 1018 q 371 1112 371 1069 m 667 1112 q 698 1181 667 1155 q 775 1207 729 1207 q 854 1181 823 1207 q 885 1112 885 1155 q 854 1043 885 1069 q 775 1018 823 1018 q 698 1043 729 1018 q 667 1112 667 1069 z "},"Ì":{"ha":507,"x_min":5,"x_max":422,"o":"m 5 1029 l 5 1204 l 422 1121 l 422 993 l 5 1029 m 93 0 l 93 929 l 414 929 l 414 0 l 93 0 z "},"Í":{"ha":507,"x_min":83,"x_max":500,"o":"m 83 993 l 83 1121 l 500 1204 l 500 1029 l 83 993 m 93 0 l 93 929 l 414 929 l 414 0 l 93 0 z "},"Î":{"ha":507,"x_min":31,"x_max":476,"o":"m 31 993 l 153 1204 l 354 1204 l 476 993 l 323 993 l 260 1125 l 245 1125 l 183 993 l 31 993 m 93 0 l 93 929 l 414 929 l 414 0 l 93 0 z "},"Ï":{"ha":507,"x_min":-3,"x_max":511,"o":"m -3 1112 q 29 1181 -3 1155 q 107 1207 60 1207 q 184 1181 154 1207 q 215 1112 215 1155 q 184 1043 215 1069 q 107 1018 154 1018 q 28 1043 60 1018 q -3 1112 -3 1069 m 93 0 l 93 929 l 414 929 l 414 0 l 93 0 m 293 1112 q 324 1181 293 1155 q 401 1207 355 1207 q 480 1181 449 1207 q 511 1112 511 1155 q 480 1043 511 1069 q 401 1018 450 1018 q 324 1043 355 1018 q 293 1112 293 1069 z "},"Ð":{"ha":1473,"x_min":0,"x_max":1415,"o":"m 0 353 l 183 587 l 833 587 l 650 353 l 534 353 l 534 267 l 846 267 q 1026 319 956 267 q 1096 460 1096 372 q 1024 602 1096 545 q 846 659 951 659 l 212 659 l 416 929 l 846 929 q 1139 871 1009 929 q 1342 710 1269 814 q 1415 473 1415 606 q 1372 286 1415 374 q 1254 135 1329 198 q 1073 36 1179 73 q 846 0 966 0 l 212 0 l 212 353 l 0 353 z "},"Ñ":{"ha":1289,"x_min":85,"x_max":1206,"o":"m 85 0 l 85 750 q 134 897 85 848 q 260 946 184 946 q 387 892 325 946 l 914 429 l 914 929 l 1206 929 l 1206 178 q 1156 31 1206 79 q 1029 -18 1105 -18 q 901 37 965 -18 l 376 498 l 376 0 l 85 0 m 422 1019 l 422 1145 q 529 1183 461 1183 q 630 1158 565 1183 q 732 1132 696 1132 q 791 1145 763 1132 q 839 1177 820 1158 l 839 1051 q 732 1014 804 1014 q 632 1040 698 1014 q 529 1065 566 1065 q 470 1052 499 1065 q 422 1019 441 1038 z "},"Ò":{"ha":1503,"x_min":58,"x_max":1446,"o":"m 58 465 q 230 828 58 711 q 751 945 402 945 q 1273 828 1101 945 q 1446 465 1446 711 q 1273 102 1446 219 q 751 -16 1101 -16 q 230 101 402 -16 q 58 465 58 218 m 379 465 q 387 386 379 419 q 414 330 395 353 q 460 292 434 306 q 532 269 487 277 q 627 258 576 261 q 751 256 677 256 q 877 258 827 256 q 972 269 927 261 q 1044 292 1017 277 q 1090 330 1070 306 q 1117 386 1109 353 q 1125 465 1125 419 q 1121 527 1125 500 q 1106 575 1116 554 q 1081 612 1095 597 q 1043 638 1067 627 q 992 656 1019 650 q 927 667 966 663 q 848 672 888 671 q 751 673 808 673 q 627 671 676 673 q 532 660 577 668 q 460 638 486 652 q 414 601 434 625 q 387 545 395 578 q 379 465 379 512 m 503 1029 l 503 1204 l 920 1121 l 920 993 l 503 1029 z "},"Ó":{"ha":1503,"x_min":58,"x_max":1446,"o":"m 58 465 q 230 828 58 711 q 751 945 402 945 q 1273 828 1101 945 q 1446 465 1446 711 q 1273 102 1446 219 q 751 -16 1101 -16 q 230 101 402 -16 q 58 465 58 218 m 379 465 q 387 386 379 419 q 414 330 395 353 q 460 292 434 306 q 532 269 487 277 q 627 258 576 261 q 751 256 677 256 q 877 258 827 256 q 972 269 927 261 q 1044 292 1017 277 q 1090 330 1070 306 q 1117 386 1109 353 q 1125 465 1125 419 q 1121 527 1125 500 q 1106 575 1116 554 q 1081 612 1095 597 q 1043 638 1067 627 q 992 656 1019 650 q 927 667 966 663 q 848 672 888 671 q 751 673 808 673 q 627 671 676 673 q 532 660 577 668 q 460 638 486 652 q 414 601 434 625 q 387 545 395 578 q 379 465 379 512 m 582 993 l 582 1121 l 999 1204 l 999 1029 l 582 993 z "},"Ô":{"ha":1503,"x_min":58,"x_max":1446,"o":"m 58 465 q 230 828 58 711 q 751 945 402 945 q 1273 828 1101 945 q 1446 465 1446 711 q 1273 102 1446 219 q 751 -16 1101 -16 q 230 101 402 -16 q 58 465 58 218 m 379 465 q 387 386 379 419 q 414 330 395 353 q 460 292 434 306 q 532 269 487 277 q 627 258 576 261 q 751 256 677 256 q 877 258 827 256 q 972 269 927 261 q 1044 292 1017 277 q 1090 330 1070 306 q 1117 386 1109 353 q 1125 465 1125 419 q 1121 527 1125 500 q 1106 575 1116 554 q 1081 612 1095 597 q 1043 638 1067 627 q 992 656 1019 650 q 927 667 966 663 q 848 672 888 671 q 751 673 808 673 q 627 671 676 673 q 532 660 577 668 q 460 638 486 652 q 414 601 434 625 q 387 545 395 578 q 379 465 379 512 m 528 993 l 650 1204 l 851 1204 l 974 993 l 821 993 l 757 1125 l 743 1125 l 681 993 l 528 993 z "},"Õ":{"ha":1503,"x_min":58,"x_max":1446,"o":"m 58 465 q 230 828 58 711 q 751 945 402 945 q 1273 828 1101 945 q 1446 465 1446 711 q 1273 102 1446 219 q 751 -16 1101 -16 q 230 101 402 -16 q 58 465 58 218 m 379 465 q 387 386 379 419 q 414 330 395 353 q 460 292 434 306 q 532 269 487 277 q 627 258 576 261 q 751 256 677 256 q 877 258 827 256 q 972 269 927 261 q 1044 292 1017 277 q 1090 330 1070 306 q 1117 386 1109 353 q 1125 465 1125 419 q 1121 527 1125 500 q 1106 575 1116 554 q 1081 612 1095 597 q 1043 638 1067 627 q 992 656 1019 650 q 927 667 966 663 q 848 672 888 671 q 751 673 808 673 q 627 671 676 673 q 532 660 577 668 q 460 638 486 652 q 414 601 434 625 q 387 545 395 578 q 379 465 379 512 m 543 1019 l 543 1145 q 650 1183 582 1183 q 751 1158 686 1183 q 852 1132 817 1132 q 912 1145 884 1132 q 960 1177 941 1158 l 960 1051 q 852 1014 924 1014 q 753 1040 819 1014 q 650 1065 687 1065 q 591 1052 620 1065 q 543 1019 562 1038 z "},"Ö":{"ha":1503,"x_min":58,"x_max":1446,"o":"m 58 465 q 230 828 58 711 q 751 945 402 945 q 1273 828 1101 945 q 1446 465 1446 711 q 1273 102 1446 219 q 751 -16 1101 -16 q 230 101 402 -16 q 58 465 58 218 m 379 465 q 387 386 379 419 q 414 330 395 353 q 460 292 434 306 q 532 269 487 277 q 627 258 576 261 q 751 256 677 256 q 877 258 827 256 q 972 269 927 261 q 1044 292 1017 277 q 1090 330 1070 306 q 1117 386 1109 353 q 1125 465 1125 419 q 1121 527 1125 500 q 1106 575 1116 554 q 1081 612 1095 597 q 1043 638 1067 627 q 992 656 1019 650 q 927 667 966 663 q 848 672 888 671 q 751 673 808 673 q 627 671 676 673 q 532 660 577 668 q 460 638 486 652 q 414 601 434 625 q 387 545 395 578 q 379 465 379 512 m 494 1112 q 526 1181 494 1155 q 604 1207 557 1207 q 682 1181 651 1207 q 713 1112 713 1155 q 682 1043 713 1069 q 604 1018 652 1018 q 526 1043 557 1018 q 494 1112 494 1069 m 790 1112 q 821 1181 790 1155 q 899 1207 852 1207 q 977 1181 946 1207 q 1008 1112 1008 1155 q 978 1043 1008 1069 q 899 1018 947 1018 q 821 1043 852 1018 q 790 1112 790 1069 z "},"×":{"ha":875,"x_min":113,"x_max":775,"o":"m 113 267 l 325 472 l 117 679 l 236 803 l 443 596 l 652 800 l 775 679 l 566 473 l 772 265 l 650 142 l 446 351 l 236 144 l 113 267 z "},"Ø":{"ha":1503,"x_min":58,"x_max":1446,"o":"m 58 465 q 230 828 58 711 q 751 945 402 945 q 1129 896 980 945 l 1234 994 l 1311 921 l 1238 850 q 1446 465 1446 733 q 1273 102 1446 219 q 751 -16 1101 -16 q 372 33 524 -16 l 268 -65 l 195 7 l 268 78 q 58 465 58 195 m 379 465 q 402 344 379 387 q 482 282 426 302 l 892 671 q 751 673 852 673 q 627 671 676 673 q 532 660 577 668 q 460 638 486 652 q 414 601 434 625 q 387 545 395 578 q 379 465 379 512 m 611 258 q 751 256 691 256 q 877 258 827 256 q 972 269 927 261 q 1044 292 1017 277 q 1090 330 1070 306 q 1117 386 1109 353 q 1125 465 1125 419 q 1101 585 1125 543 q 1021 647 1076 627 l 611 258 z "},"Ù":{"ha":1393,"x_min":77,"x_max":1317,"o":"m 77 406 l 77 929 l 397 929 l 397 406 q 404 342 397 366 q 430 299 411 319 q 486 271 448 280 q 581 256 524 261 q 726 252 637 252 q 933 287 873 252 q 993 406 993 321 l 993 929 l 1317 929 l 1317 406 q 726 -16 1317 -16 q 233 89 389 -16 q 77 406 77 193 m 447 1029 l 447 1204 l 864 1121 l 864 993 l 447 1029 z "},"Ú":{"ha":1393,"x_min":77,"x_max":1317,"o":"m 77 406 l 77 929 l 397 929 l 397 406 q 404 342 397 366 q 430 299 411 319 q 486 271 448 280 q 581 256 524 261 q 726 252 637 252 q 933 287 873 252 q 993 406 993 321 l 993 929 l 1317 929 l 1317 406 q 726 -16 1317 -16 q 233 89 389 -16 q 77 406 77 193 m 526 993 l 526 1121 l 943 1204 l 943 1029 l 526 993 z "},"Û":{"ha":1393,"x_min":77,"x_max":1317,"o":"m 77 406 l 77 929 l 397 929 l 397 406 q 404 342 397 366 q 430 299 411 319 q 486 271 448 280 q 581 256 524 261 q 726 252 637 252 q 933 287 873 252 q 993 406 993 321 l 993 929 l 1317 929 l 1317 406 q 726 -16 1317 -16 q 233 89 389 -16 q 77 406 77 193 m 472 993 l 595 1204 l 796 1204 l 918 993 l 765 993 l 701 1125 l 688 1125 l 625 993 l 472 993 z "},"Ü":{"ha":1393,"x_min":77,"x_max":1317,"o":"m 77 406 l 77 929 l 397 929 l 397 406 q 404 342 397 366 q 430 299 411 319 q 486 271 448 280 q 581 256 524 261 q 726 252 637 252 q 933 287 873 252 q 993 406 993 321 l 993 929 l 1317 929 l 1317 406 q 726 -16 1317 -16 q 233 89 389 -16 q 77 406 77 193 m 439 1112 q 470 1181 439 1155 q 549 1207 502 1207 q 626 1181 595 1207 q 657 1112 657 1155 q 627 1043 657 1069 q 549 1018 596 1018 q 470 1043 501 1018 q 439 1112 439 1069 m 734 1112 q 766 1181 734 1155 q 843 1207 797 1207 q 922 1181 890 1207 q 953 1112 953 1155 q 922 1043 953 1069 q 843 1018 891 1018 q 766 1043 797 1018 q 734 1112 734 1069 z "},"Ý":{"ha":1451,"x_min":11,"x_max":1440,"o":"m 11 929 l 424 929 l 633 675 q 737 536 715 577 q 838 675 763 582 l 1038 929 l 1440 929 l 896 298 l 896 0 l 574 0 l 574 300 l 11 929 m 555 993 l 555 1121 l 972 1204 l 972 1029 l 555 993 z "},"Þ":{"ha":1358,"x_min":89,"x_max":1305,"o":"m 89 0 l 89 929 l 410 929 l 410 808 l 839 808 q 1182 712 1058 808 q 1305 456 1305 616 q 1181 198 1305 297 q 840 100 1057 100 l 461 100 l 673 371 l 860 371 q 950 393 918 371 q 982 454 982 416 q 952 519 982 494 q 869 545 923 545 l 410 545 l 410 0 l 89 0 z "},"ß":{"ha":2717,"x_min":33,"x_max":2676,"o":"m 33 0 l 240 267 l 942 267 q 1007 315 1007 267 q 939 364 1007 364 l 414 364 q 152 437 240 364 q 64 633 64 511 q 161 854 64 779 q 471 929 259 929 l 1291 929 l 1083 659 l 440 659 q 391 648 407 659 q 375 614 375 638 q 391 579 375 589 q 440 568 407 568 l 968 568 q 1227 503 1137 568 q 1317 311 1317 437 q 1305 205 1317 252 q 1266 119 1293 158 q 1195 54 1238 80 q 1087 14 1152 28 q 937 0 1022 0 l 33 0 m 1393 0 l 1600 267 l 2302 267 q 2367 315 2367 267 q 2298 364 2367 364 l 1773 364 q 1512 437 1600 364 q 1423 633 1423 511 q 1521 854 1423 779 q 1830 929 1619 929 l 2650 929 l 2443 659 l 1800 659 q 1751 648 1767 659 q 1735 614 1735 638 q 1751 579 1735 589 q 1800 568 1767 568 l 2327 568 q 2587 503 2497 568 q 2676 311 2676 438 q 2657 181 2676 237 q 2595 84 2638 126 q 2477 21 2551 42 q 2297 0 2403 0 l 1393 0 z "},"à":{"ha":1613,"x_min":16,"x_max":1600,"o":"m 16 0 l 610 828 q 817 946 694 946 q 1022 828 940 946 l 1600 0 l 501 0 l 696 267 l 904 267 q 1031 264 1002 267 q 966 351 1006 292 l 811 578 l 396 0 l 16 0 m 558 1029 l 558 1204 l 975 1121 l 975 993 l 558 1029 z "},"á":{"ha":1613,"x_min":16,"x_max":1600,"o":"m 16 0 l 610 828 q 817 946 694 946 q 1022 828 940 946 l 1600 0 l 501 0 l 696 267 l 904 267 q 1031 264 1002 267 q 966 351 1006 292 l 811 578 l 396 0 l 16 0 m 637 993 l 637 1121 l 1054 1204 l 1054 1029 l 637 993 z "},"â":{"ha":1613,"x_min":16,"x_max":1600,"o":"m 16 0 l 610 828 q 817 946 694 946 q 1022 828 940 946 l 1600 0 l 501 0 l 696 267 l 904 267 q 1031 264 1002 267 q 966 351 1006 292 l 811 578 l 396 0 l 16 0 m 583 993 l 705 1204 l 907 1204 l 1029 993 l 876 993 l 812 1125 l 799 1125 l 736 993 l 583 993 z "},"ã":{"ha":1613,"x_min":16,"x_max":1600,"o":"m 16 0 l 610 828 q 817 946 694 946 q 1022 828 940 946 l 1600 0 l 501 0 l 696 267 l 904 267 q 1031 264 1002 267 q 966 351 1006 292 l 811 578 l 396 0 l 16 0 m 597 1019 l 597 1145 q 704 1183 636 1183 q 805 1158 740 1183 q 907 1132 871 1132 q 966 1145 938 1132 q 1014 1177 995 1158 l 1014 1051 q 907 1014 979 1014 q 807 1040 873 1014 q 704 1065 741 1065 q 645 1052 674 1065 q 597 1019 616 1038 z "},"ä":{"ha":1613,"x_min":16,"x_max":1600,"o":"m 16 0 l 610 828 q 817 946 694 946 q 1022 828 940 946 l 1600 0 l 501 0 l 696 267 l 904 267 q 1031 264 1002 267 q 966 351 1006 292 l 811 578 l 396 0 l 16 0 m 550 1112 q 582 1181 550 1155 q 660 1207 613 1207 q 738 1181 707 1207 q 768 1112 768 1155 q 738 1043 768 1069 q 660 1018 707 1018 q 581 1043 612 1018 q 550 1112 550 1069 m 846 1112 q 877 1181 846 1155 q 954 1207 908 1207 q 1033 1181 1002 1207 q 1064 1112 1064 1155 q 1033 1043 1064 1069 q 954 1018 1002 1018 q 877 1043 908 1018 q 846 1112 846 1069 z "},"å":{"ha":1613,"x_min":16,"x_max":1600,"o":"m 16 0 l 610 828 q 817 946 694 946 q 1022 828 940 946 l 1600 0 l 501 0 l 696 267 l 904 267 q 1031 264 1002 267 q 966 351 1006 292 l 811 578 l 396 0 l 16 0 m 604 1108 l 604 1196 q 747 1312 604 1312 l 864 1312 q 1008 1196 1008 1312 l 1008 1108 q 864 993 1008 993 l 747 993 q 604 1108 604 993 m 721 1122 q 746 1099 721 1101 l 865 1099 q 889 1122 889 1099 l 890 1186 q 865 1206 890 1206 l 746 1206 q 721 1186 723 1206 l 721 1122 z "},"æ":{"ha":2023,"x_min":16,"x_max":2014,"o":"m 16 0 l 590 812 q 798 929 671 929 l 2009 929 l 1803 659 l 1235 659 l 1235 589 l 1957 589 l 1773 354 l 1235 354 l 1235 267 l 2014 267 l 1805 0 l 913 0 l 913 659 l 860 659 l 396 0 l 16 0 z "},"ç":{"ha":1305,"x_min":58,"x_max":1292,"o":"m 58 473 q 132 711 58 607 q 334 872 205 816 q 625 929 463 929 l 1292 929 l 1086 659 l 625 659 q 444 615 507 659 q 380 473 380 572 q 446 319 380 372 q 625 267 511 267 l 1292 267 l 1086 0 l 625 0 q 399 36 505 0 q 219 135 294 73 q 101 286 144 198 q 58 473 58 374 m 585 -43 l 823 -43 l 701 -354 l 585 -354 l 585 -43 z "},"è":{"ha":1200,"x_min":89,"x_max":1189,"o":"m 89 0 l 89 929 l 1187 929 l 979 659 l 411 659 l 411 581 l 1131 581 l 951 354 l 411 354 l 411 267 l 1189 267 l 983 0 l 89 0 m 380 1026 l 380 1202 l 798 1118 l 798 990 l 380 1026 z "},"é":{"ha":1200,"x_min":89,"x_max":1189,"o":"m 89 0 l 89 929 l 1187 929 l 979 659 l 411 659 l 411 581 l 1131 581 l 951 354 l 411 354 l 411 267 l 1189 267 l 983 0 l 89 0 m 444 993 l 444 1121 l 861 1204 l 861 1029 l 444 993 z "},"ê":{"ha":1200,"x_min":89,"x_max":1189,"o":"m 89 0 l 89 929 l 1187 929 l 979 659 l 411 659 l 411 581 l 1131 581 l 951 354 l 411 354 l 411 267 l 1189 267 l 983 0 l 89 0 m 397 993 l 519 1204 l 721 1204 l 843 993 l 690 993 l 627 1125 l 612 1125 l 550 993 l 397 993 z "},"ë":{"ha":1200,"x_min":89,"x_max":1189,"o":"m 89 0 l 89 929 l 1187 929 l 979 659 l 411 659 l 411 581 l 1131 581 l 951 354 l 411 354 l 411 267 l 1189 267 l 983 0 l 89 0 m 371 1112 q 402 1181 371 1155 q 481 1207 434 1207 q 558 1181 528 1207 q 589 1112 589 1155 q 558 1043 589 1069 q 481 1018 528 1018 q 402 1043 433 1018 q 371 1112 371 1069 m 667 1112 q 698 1181 667 1155 q 775 1207 729 1207 q 854 1181 823 1207 q 885 1112 885 1155 q 854 1043 885 1069 q 775 1018 823 1018 q 698 1043 729 1018 q 667 1112 667 1069 z "},"ì":{"ha":507,"x_min":5,"x_max":422,"o":"m 5 1029 l 5 1204 l 422 1121 l 422 993 l 5 1029 m 93 0 l 93 929 l 414 929 l 414 0 l 93 0 z "},"í":{"ha":507,"x_min":83,"x_max":500,"o":"m 83 993 l 83 1121 l 500 1204 l 500 1029 l 83 993 m 93 0 l 93 929 l 414 929 l 414 0 l 93 0 z "},"î":{"ha":507,"x_min":31,"x_max":476,"o":"m 31 993 l 153 1204 l 354 1204 l 476 993 l 323 993 l 260 1125 l 245 1125 l 183 993 l 31 993 m 93 0 l 93 929 l 414 929 l 414 0 l 93 0 z "},"ï":{"ha":507,"x_min":-3,"x_max":511,"o":"m -3 1112 q 29 1181 -3 1155 q 107 1207 60 1207 q 184 1181 154 1207 q 215 1112 215 1155 q 184 1043 215 1069 q 107 1018 154 1018 q 28 1043 60 1018 q -3 1112 -3 1069 m 93 0 l 93 929 l 414 929 l 414 0 l 93 0 m 293 1112 q 324 1181 293 1155 q 401 1207 355 1207 q 480 1181 449 1207 q 511 1112 511 1155 q 480 1043 511 1069 q 401 1018 450 1018 q 324 1043 355 1018 q 293 1112 293 1069 z "},"ð":{"ha":1473,"x_min":0,"x_max":1415,"o":"m 0 353 l 183 587 l 833 587 l 650 353 l 534 353 l 534 267 l 846 267 q 1026 319 956 267 q 1096 460 1096 372 q 1024 602 1096 545 q 846 659 951 659 l 212 659 l 416 929 l 846 929 q 1139 871 1009 929 q 1342 710 1269 814 q 1415 473 1415 606 q 1372 286 1415 374 q 1254 135 1329 198 q 1073 36 1179 73 q 846 0 966 0 l 212 0 l 212 353 l 0 353 z "},"ñ":{"ha":1289,"x_min":85,"x_max":1206,"o":"m 85 0 l 85 750 q 134 897 85 848 q 260 946 184 946 q 387 892 325 946 l 914 429 l 914 929 l 1206 929 l 1206 178 q 1156 31 1206 79 q 1029 -18 1105 -18 q 901 37 965 -18 l 376 498 l 376 0 l 85 0 m 422 1019 l 422 1145 q 529 1183 461 1183 q 630 1158 565 1183 q 732 1132 696 1132 q 791 1145 763 1132 q 839 1177 820 1158 l 839 1051 q 732 1014 804 1014 q 632 1040 698 1014 q 529 1065 566 1065 q 470 1052 499 1065 q 422 1019 441 1038 z "},"ò":{"ha":1503,"x_min":58,"x_max":1446,"o":"m 58 465 q 230 828 58 711 q 751 945 402 945 q 1273 828 1101 945 q 1446 465 1446 711 q 1273 102 1446 219 q 751 -16 1101 -16 q 230 101 402 -16 q 58 465 58 218 m 379 465 q 387 386 379 419 q 414 330 395 353 q 460 292 434 306 q 532 269 487 277 q 627 258 576 261 q 751 256 677 256 q 877 258 827 256 q 972 269 927 261 q 1044 292 1017 277 q 1090 330 1070 306 q 1117 386 1109 353 q 1125 465 1125 419 q 1121 527 1125 500 q 1106 575 1116 554 q 1081 612 1095 597 q 1043 638 1067 627 q 992 656 1019 650 q 927 667 966 663 q 848 672 888 671 q 751 673 808 673 q 627 671 676 673 q 532 660 577 668 q 460 638 486 652 q 414 601 434 625 q 387 545 395 578 q 379 465 379 512 m 503 1029 l 503 1204 l 920 1121 l 920 993 l 503 1029 z "},"ó":{"ha":1503,"x_min":58,"x_max":1446,"o":"m 58 465 q 230 828 58 711 q 751 945 402 945 q 1273 828 1101 945 q 1446 465 1446 711 q 1273 102 1446 219 q 751 -16 1101 -16 q 230 101 402 -16 q 58 465 58 218 m 379 465 q 387 386 379 419 q 414 330 395 353 q 460 292 434 306 q 532 269 487 277 q 627 258 576 261 q 751 256 677 256 q 877 258 827 256 q 972 269 927 261 q 1044 292 1017 277 q 1090 330 1070 306 q 1117 386 1109 353 q 1125 465 1125 419 q 1121 527 1125 500 q 1106 575 1116 554 q 1081 612 1095 597 q 1043 638 1067 627 q 992 656 1019 650 q 927 667 966 663 q 848 672 888 671 q 751 673 808 673 q 627 671 676 673 q 532 660 577 668 q 460 638 486 652 q 414 601 434 625 q 387 545 395 578 q 379 465 379 512 m 582 993 l 582 1121 l 999 1204 l 999 1029 l 582 993 z "},"ô":{"ha":1503,"x_min":58,"x_max":1446,"o":"m 58 465 q 230 828 58 711 q 751 945 402 945 q 1273 828 1101 945 q 1446 465 1446 711 q 1273 102 1446 219 q 751 -16 1101 -16 q 230 101 402 -16 q 58 465 58 218 m 379 465 q 387 386 379 419 q 414 330 395 353 q 460 292 434 306 q 532 269 487 277 q 627 258 576 261 q 751 256 677 256 q 877 258 827 256 q 972 269 927 261 q 1044 292 1017 277 q 1090 330 1070 306 q 1117 386 1109 353 q 1125 465 1125 419 q 1121 527 1125 500 q 1106 575 1116 554 q 1081 612 1095 597 q 1043 638 1067 627 q 992 656 1019 650 q 927 667 966 663 q 848 672 888 671 q 751 673 808 673 q 627 671 676 673 q 532 660 577 668 q 460 638 486 652 q 414 601 434 625 q 387 545 395 578 q 379 465 379 512 m 528 993 l 650 1204 l 851 1204 l 974 993 l 821 993 l 757 1125 l 743 1125 l 681 993 l 528 993 z "},"õ":{"ha":1503,"x_min":58,"x_max":1446,"o":"m 58 465 q 230 828 58 711 q 751 945 402 945 q 1273 828 1101 945 q 1446 465 1446 711 q 1273 102 1446 219 q 751 -16 1101 -16 q 230 101 402 -16 q 58 465 58 218 m 379 465 q 387 386 379 419 q 414 330 395 353 q 460 292 434 306 q 532 269 487 277 q 627 258 576 261 q 751 256 677 256 q 877 258 827 256 q 972 269 927 261 q 1044 292 1017 277 q 1090 330 1070 306 q 1117 386 1109 353 q 1125 465 1125 419 q 1121 527 1125 500 q 1106 575 1116 554 q 1081 612 1095 597 q 1043 638 1067 627 q 992 656 1019 650 q 927 667 966 663 q 848 672 888 671 q 751 673 808 673 q 627 671 676 673 q 532 660 577 668 q 460 638 486 652 q 414 601 434 625 q 387 545 395 578 q 379 465 379 512 m 543 1019 l 543 1145 q 650 1183 582 1183 q 751 1158 686 1183 q 852 1132 817 1132 q 912 1145 884 1132 q 960 1177 941 1158 l 960 1051 q 852 1014 924 1014 q 753 1040 819 1014 q 650 1065 687 1065 q 591 1052 620 1065 q 543 1019 562 1038 z "},"ö":{"ha":1503,"x_min":58,"x_max":1446,"o":"m 58 465 q 230 828 58 711 q 751 945 402 945 q 1273 828 1101 945 q 1446 465 1446 711 q 1273 102 1446 219 q 751 -16 1101 -16 q 230 101 402 -16 q 58 465 58 218 m 379 465 q 387 386 379 419 q 414 330 395 353 q 460 292 434 306 q 532 269 487 277 q 627 258 576 261 q 751 256 677 256 q 877 258 827 256 q 972 269 927 261 q 1044 292 1017 277 q 1090 330 1070 306 q 1117 386 1109 353 q 1125 465 1125 419 q 1121 527 1125 500 q 1106 575 1116 554 q 1081 612 1095 597 q 1043 638 1067 627 q 992 656 1019 650 q 927 667 966 663 q 848 672 888 671 q 751 673 808 673 q 627 671 676 673 q 532 660 577 668 q 460 638 486 652 q 414 601 434 625 q 387 545 395 578 q 379 465 379 512 m 494 1112 q 526 1181 494 1155 q 604 1207 557 1207 q 682 1181 651 1207 q 713 1112 713 1155 q 682 1043 713 1069 q 604 1018 652 1018 q 526 1043 557 1018 q 494 1112 494 1069 m 790 1112 q 821 1181 790 1155 q 899 1207 852 1207 q 977 1181 946 1207 q 1008 1112 1008 1155 q 978 1043 1008 1069 q 899 1018 947 1018 q 821 1043 852 1018 q 790 1112 790 1069 z "},"÷":{"ha":875,"x_min":58,"x_max":817,"o":"m 58 385 l 58 557 l 817 557 l 817 385 l 58 385 m 265 132 q 314 242 265 201 q 439 282 363 282 q 562 241 513 282 q 611 132 611 201 q 562 23 611 63 q 439 -17 513 -17 q 314 23 363 -17 q 265 132 265 62 m 265 804 q 314 914 265 873 q 439 954 363 954 q 562 913 513 954 q 611 804 611 873 q 562 695 611 735 q 439 656 513 656 q 314 695 363 656 q 265 804 265 734 z "},"ø":{"ha":1503,"x_min":58,"x_max":1446,"o":"m 58 465 q 230 828 58 711 q 751 945 402 945 q 1129 896 980 945 l 1234 994 l 1311 921 l 1238 850 q 1446 465 1446 733 q 1273 102 1446 219 q 751 -16 1101 -16 q 372 33 524 -16 l 268 -65 l 195 7 l 268 78 q 58 465 58 195 m 379 465 q 402 344 379 387 q 482 282 426 302 l 892 671 q 751 673 852 673 q 627 671 676 673 q 532 660 577 668 q 460 638 486 652 q 414 601 434 625 q 387 545 395 578 q 379 465 379 512 m 611 258 q 751 256 691 256 q 877 258 827 256 q 972 269 927 261 q 1044 292 1017 277 q 1090 330 1070 306 q 1117 386 1109 353 q 1125 465 1125 419 q 1101 585 1125 543 q 1021 647 1076 627 l 611 258 z "},"ù":{"ha":1393,"x_min":77,"x_max":1317,"o":"m 77 406 l 77 929 l 397 929 l 397 406 q 404 342 397 366 q 430 299 411 319 q 486 271 448 280 q 581 256 524 261 q 726 252 637 252 q 933 287 873 252 q 993 406 993 321 l 993 929 l 1317 929 l 1317 406 q 726 -16 1317 -16 q 233 89 389 -16 q 77 406 77 193 m 447 1029 l 447 1204 l 864 1121 l 864 993 l 447 1029 z "},"ú":{"ha":1393,"x_min":77,"x_max":1317,"o":"m 77 406 l 77 929 l 397 929 l 397 406 q 404 342 397 366 q 430 299 411 319 q 486 271 448 280 q 581 256 524 261 q 726 252 637 252 q 933 287 873 252 q 993 406 993 321 l 993 929 l 1317 929 l 1317 406 q 726 -16 1317 -16 q 233 89 389 -16 q 77 406 77 193 m 526 993 l 526 1121 l 943 1204 l 943 1029 l 526 993 z "},"û":{"ha":1393,"x_min":77,"x_max":1317,"o":"m 77 406 l 77 929 l 397 929 l 397 406 q 404 342 397 366 q 430 299 411 319 q 486 271 448 280 q 581 256 524 261 q 726 252 637 252 q 933 287 873 252 q 993 406 993 321 l 993 929 l 1317 929 l 1317 406 q 726 -16 1317 -16 q 233 89 389 -16 q 77 406 77 193 m 472 993 l 595 1204 l 796 1204 l 918 993 l 765 993 l 701 1125 l 688 1125 l 625 993 l 472 993 z "},"ü":{"ha":1393,"x_min":77,"x_max":1317,"o":"m 77 406 l 77 929 l 397 929 l 397 406 q 404 342 397 366 q 430 299 411 319 q 486 271 448 280 q 581 256 524 261 q 726 252 637 252 q 933 287 873 252 q 993 406 993 321 l 993 929 l 1317 929 l 1317 406 q 726 -16 1317 -16 q 233 89 389 -16 q 77 406 77 193 m 439 1112 q 470 1181 439 1155 q 549 1207 502 1207 q 626 1181 595 1207 q 657 1112 657 1155 q 627 1043 657 1069 q 549 1018 596 1018 q 470 1043 501 1018 q 439 1112 439 1069 m 734 1112 q 766 1181 734 1155 q 843 1207 797 1207 q 922 1181 890 1207 q 953 1112 953 1155 q 922 1043 953 1069 q 843 1018 891 1018 q 766 1043 797 1018 q 734 1112 734 1069 z "},"ý":{"ha":1451,"x_min":11,"x_max":1440,"o":"m 11 929 l 424 929 l 633 675 q 737 536 715 577 q 838 675 763 582 l 1038 929 l 1440 929 l 896 298 l 896 0 l 574 0 l 574 300 l 11 929 m 555 993 l 555 1121 l 972 1204 l 972 1029 l 555 993 z "},"þ":{"ha":1358,"x_min":89,"x_max":1305,"o":"m 89 0 l 89 929 l 410 929 l 410 808 l 839 808 q 1182 712 1058 808 q 1305 456 1305 616 q 1181 198 1305 297 q 840 100 1057 100 l 461 100 l 673 371 l 860 371 q 950 393 918 371 q 982 454 982 416 q 952 519 982 494 q 869 545 923 545 l 410 545 l 410 0 l 89 0 z "},"ÿ":{"ha":1451,"x_min":11,"x_max":1440,"o":"m 11 929 l 424 929 l 633 675 q 737 536 715 577 q 838 675 763 582 l 1038 929 l 1440 929 l 896 298 l 896 0 l 574 0 l 574 300 l 11 929 m 468 1112 q 499 1181 468 1155 q 578 1207 531 1207 q 655 1181 625 1207 q 686 1112 686 1155 q 656 1043 686 1069 q 578 1018 625 1018 q 499 1043 530 1018 q 468 1112 468 1069 m 764 1112 q 795 1181 764 1155 q 872 1207 826 1207 q 951 1181 920 1207 q 982 1112 982 1155 q 951 1043 982 1069 q 872 1018 920 1018 q 795 1043 826 1018 q 764 1112 764 1069 z "},"Œ":{"ha":2117,"x_min":58,"x_max":2106,"o":"m 58 465 q 230 828 58 711 q 751 945 402 945 q 1000 929 891 945 l 2103 929 l 1896 659 l 1322 659 l 1322 589 l 2049 589 l 1867 354 l 1322 354 l 1322 267 l 2106 267 l 1900 0 l 1000 0 q 751 -16 891 -16 q 230 101 402 -16 q 58 465 58 218 m 379 465 q 387 386 379 419 q 414 330 395 353 q 460 292 434 306 q 532 269 487 277 q 627 258 576 261 q 751 256 677 256 q 901 261 845 256 q 1000 282 956 267 l 1000 647 q 901 668 956 663 q 751 673 845 673 q 627 671 676 673 q 532 660 577 668 q 460 638 486 652 q 414 601 434 625 q 387 545 395 578 q 379 465 379 512 z "},"œ":{"ha":2117,"x_min":58,"x_max":2106,"o":"m 58 465 q 230 828 58 711 q 751 945 402 945 q 1000 929 891 945 l 2103 929 l 1896 659 l 1322 659 l 1322 589 l 2049 589 l 1867 354 l 1322 354 l 1322 267 l 2106 267 l 1900 0 l 1000 0 q 751 -16 891 -16 q 230 101 402 -16 q 58 465 58 218 m 379 465 q 387 386 379 419 q 414 330 395 353 q 460 292 434 306 q 532 269 487 277 q 627 258 576 261 q 751 256 677 256 q 901 261 845 256 q 1000 282 956 267 l 1000 647 q 901 668 956 663 q 751 673 845 673 q 627 671 676 673 q 532 660 577 668 q 460 638 486 652 q 414 601 434 625 q 387 545 395 578 q 379 465 379 512 z "},"Ÿ":{"ha":1451,"x_min":11,"x_max":1440,"o":"m 11 929 l 424 929 l 633 675 q 737 536 715 577 q 838 675 763 582 l 1038 929 l 1440 929 l 896 298 l 896 0 l 574 0 l 574 300 l 11 929 m 468 1112 q 499 1181 468 1155 q 578 1207 531 1207 q 655 1181 625 1207 q 686 1112 686 1155 q 656 1043 686 1069 q 578 1018 625 1018 q 499 1043 530 1018 q 468 1112 468 1069 m 764 1112 q 795 1181 764 1155 q 872 1207 826 1207 q 951 1181 920 1207 q 982 1112 982 1155 q 951 1043 982 1069 q 872 1018 920 1018 q 795 1043 826 1018 q 764 1112 764 1069 z "},"ˆ":{"ha":579,"x_min":66,"x_max":513,"o":"m 66 993 l 189 1204 l 390 1204 l 513 993 l 359 993 l 296 1125 l 282 1125 l 220 993 l 66 993 z "},"˜":{"ha":551,"x_min":66,"x_max":484,"o":"m 66 1019 l 66 1145 q 174 1183 105 1183 q 275 1158 210 1183 q 376 1132 340 1132 q 436 1145 408 1132 q 484 1177 465 1158 l 484 1051 q 376 1014 448 1014 q 277 1040 342 1014 q 174 1065 211 1065 q 115 1052 144 1065 q 66 1019 85 1038 z "}," ":{"ha":656,"x_min":0,"x_max":0,"o":""}," ":{"ha":1312,"x_min":0,"x_max":0,"o":""}," ":{"ha":656,"x_min":0,"x_max":0,"o":""}," ":{"ha":1312,"x_min":0,"x_max":0,"o":""}," ":{"ha":437,"x_min":0,"x_max":0,"o":""}," ":{"ha":328,"x_min":0,"x_max":0,"o":""}," ":{"ha":218,"x_min":0,"x_max":0,"o":""}," ":{"ha":218,"x_min":0,"x_max":0,"o":""}," ":{"ha":163,"x_min":0,"x_max":0,"o":""}," ":{"ha":262,"x_min":0,"x_max":0,"o":""}," ":{"ha":73,"x_min":0,"x_max":0,"o":""},"‐":{"ha":668,"x_min":21,"x_max":650,"o":"m 21 370 l 179 571 l 650 571 l 492 370 l 21 370 z "},"‑":{"ha":668,"x_min":21,"x_max":650,"o":"m 21 370 l 179 571 l 650 571 l 492 370 l 21 370 z "},"‒":{"ha":668,"x_min":21,"x_max":650,"o":"m 21 370 l 179 571 l 650 571 l 492 370 l 21 370 z "},"–":{"ha":890,"x_min":21,"x_max":869,"o":"m 21 370 l 179 571 l 869 571 l 714 370 l 21 370 z "},"—":{"ha":1415,"x_min":21,"x_max":1397,"o":"m 21 370 l 179 571 l 1397 571 l 1240 370 l 21 370 z "},"‘":{"ha":326,"x_min":24,"x_max":302,"o":"m 24 929 l 302 929 l 302 557 l 170 557 l 24 929 z "},"’":{"ha":326,"x_min":25,"x_max":304,"o":"m 25 557 l 25 929 l 304 929 l 160 557 l 25 557 z "},"‚":{"ha":326,"x_min":18,"x_max":302,"o":"m 18 -134 l 18 239 l 302 239 l 158 -134 l 18 -134 z "},"“":{"ha":658,"x_min":24,"x_max":635,"o":"m 24 929 l 302 929 l 302 557 l 170 557 l 24 929 m 355 929 l 635 929 l 635 557 l 501 557 l 355 929 z "},"”":{"ha":658,"x_min":20,"x_max":631,"o":"m 20 557 l 20 929 l 298 929 l 154 557 l 20 557 m 353 557 l 353 929 l 631 929 l 485 557 l 353 557 z "},"„":{"ha":658,"x_min":18,"x_max":635,"o":"m 18 -134 l 18 239 l 302 239 l 158 -134 l 18 -134 m 350 -134 l 350 239 l 635 239 l 489 -134 l 350 -134 z "},"•":{"ha":667,"x_min":83,"x_max":583,"o":"m 156 288 q 120 325 156 288 q 83 465 83 361 q 156 643 83 569 q 332 717 229 717 q 509 643 435 717 q 583 465 583 569 q 509 288 583 361 q 332 214 435 214 q 156 288 229 214 z "},"…":{"ha":2319,"x_min":58,"x_max":2260,"o":"m 58 132 q 107 242 58 201 q 232 282 157 282 q 355 241 306 282 q 404 132 404 201 q 355 23 404 63 q 232 -17 307 -17 q 107 23 157 -17 q 58 132 58 62 m 986 132 q 1035 242 986 201 q 1160 282 1084 282 q 1283 241 1234 282 q 1332 132 1332 201 q 1283 23 1332 63 q 1160 -17 1234 -17 q 1035 23 1084 -17 q 986 132 986 62 m 1914 132 q 1963 242 1914 201 q 2087 282 2012 282 q 2210 241 2161 282 q 2260 132 2260 201 q 2211 23 2260 63 q 2087 -17 2162 -17 q 1963 23 2012 -17 q 1914 132 1914 62 z "}," ":{"ha":262,"x_min":0,"x_max":0,"o":""},"‹":{"ha":340,"x_min":40,"x_max":282,"o":"m 40 376 l 40 517 l 282 688 l 282 541 l 135 452 l 282 358 l 282 215 l 40 376 z "},"›":{"ha":341,"x_min":65,"x_max":307,"o":"m 65 215 l 65 358 l 214 452 l 65 541 l 65 688 l 307 517 l 307 376 l 65 215 z "}," ":{"ha":328,"x_min":0,"x_max":0,"o":""},"€":{"ha":1258,"x_min":11,"x_max":1227,"o":"m 11 347 l 69 437 l 126 437 q 125 455 126 444 q 125 473 125 467 q 126 501 125 492 l 11 501 l 69 591 l 140 591 q 335 837 185 745 q 692 929 484 929 l 1227 929 l 1021 659 l 692 659 q 484 591 541 659 l 964 591 l 893 501 l 450 501 q 449 473 449 492 q 450 437 449 448 l 844 437 l 772 347 l 485 347 q 692 267 547 267 l 1194 267 l 989 0 l 692 0 q 340 96 489 0 q 143 347 191 191 l 11 347 z "},"™":{"ha":806,"x_min":47,"x_max":742,"o":"m 47 836 l 47 929 l 339 929 l 339 836 l 241 836 l 241 541 l 147 541 l 147 836 l 47 836 m 380 541 l 380 929 l 465 929 l 561 699 l 657 929 l 742 929 l 742 541 l 648 541 l 648 685 l 597 541 l 526 541 l 475 684 l 475 541 l 380 541 z "},"◼":{"ha":930,"x_min":0,"x_max":930,"o":"m 0 0 l 0 930 l 930 930 l 930 0 l 0 0 z "}}}
